<svg id="Layer_1" data-name="Layer 1" xmlns="http://www.w3.org/2000/svg" xmlns:xlink="http://www.w3.org/1999/xlink" viewBox="0 0 48 48"><defs><style>.cls-1{fill:none;}.cls-2{fill:#73bdcd;}.cls-3{fill:#85c9d5;}.cls-4,.cls-5{fill:#fff;}.cls-4,.cls-5,.cls-6,.cls-7{fill-rule:evenodd;}.cls-5{opacity:0.6;}.cls-6,.cls-7{fill:#80a23e;}.cls-6{stroke:#fff;stroke-miterlimit:10;stroke-width:4px;}.cls-8{clip-path:url(#clip-path);}</style><clipPath id="clip-path"><path id="_Clipping_Path_" data-name="&lt;Clipping Path&gt;" class="cls-1" d="M25.87.89a2.36,2.36,0,0,0-3.7,0L.66,26A2.73,2.73,0,0,0,1.06,30l9.49,7.48L35.65,12.34Z"/></clipPath></defs><title>icons-azure</title><path class="cls-2" d="M47.35,26,35.65,12.34,25.87.89a2.36,2.36,0,0,0-3.7,0L.66,26A2.73,2.73,0,0,0,1.06,30l9.49,7.48,11.19,8.82a3.83,3.83,0,0,0,4.5,0L46.94,30A2.73,2.73,0,0,0,47.35,26Z"/><path id="_Path_" data-name="&lt;Path&gt;" class="cls-3" d="M25.87.89a2.36,2.36,0,0,0-3.7,0L.66,26A2.73,2.73,0,0,0,1.06,30l9.49,7.48L35.65,12.34Z"/><path id="_Path_2" data-name="&lt;Path&gt;" class="cls-2" d="M26.24,46.27,46.94,30a2.73,2.73,0,0,0,.4-3.94L35.65,12.34,10.55,37.45l11.19,8.82A3.83,3.83,0,0,0,26.24,46.27Z"/><path id="_Compound_Path_" data-name="&lt;Compound Path&gt;" class="cls-4" d="M13,29.41l1.53-1.47,7,6.58L20,36Z"/><path id="_Compound_Path_2" data-name="&lt;Compound Path&gt;" class="cls-5" d="M20.26,14l1.48,1.48L12.08,26.13,10.6,24.65Z"/><path id="_Compound_Path_3" data-name="&lt;Compound Path&gt;" class="cls-5" d="M36.41,23.63l-1.52,1.52L26,15.22l1.52-1.52Z"/><path id="_Compound_Path_4" data-name="&lt;Compound Path&gt;" class="cls-4" d="M23,15h2V36H23Z"/><path id="_Compound_Path_5" data-name="&lt;Compound Path&gt;" class="cls-4" d="M28.26,35.7l-1.49-1.42L33.49,28,35,29.42Z"/><path id="_Compound_Path_6" data-name="&lt;Compound Path&gt;" class="cls-6" d="M24,11a2,2,0,1,1-2,2A2,2,0,0,1,24,11Z"/><path id="_Compound_Path_7" data-name="&lt;Compound Path&gt;" class="cls-7" d="M24,11a2,2,0,1,1-2,2A2,2,0,0,1,24,11Z"/><path id="_Compound_Path_8" data-name="&lt;Compound Path&gt;" class="cls-6" d="M11.5,24A2.5,2.5,0,1,1,9,26.5,2.5,2.5,0,0,1,11.5,24Z"/><path id="_Compound_Path_9" data-name="&lt;Compound Path&gt;" class="cls-7" d="M11.5,24A2.5,2.5,0,1,1,9,26.5,2.5,2.5,0,0,1,11.5,24Z"/><path id="_Compound_Path_10" data-name="&lt;Compound Path&gt;" class="cls-6" d="M36.5,24A2.5,2.5,0,1,1,34,26.5,2.5,2.5,0,0,1,36.5,24Z"/><path id="_Compound_Path_11" data-name="&lt;Compound Path&gt;" class="cls-7" d="M36.5,24A2.5,2.5,0,1,1,34,26.5,2.5,2.5,0,0,1,36.5,24Z"/><path id="_Compound_Path_12" data-name="&lt;Compound Path&gt;" class="cls-6" d="M24,32a3,3,0,1,1-3,3A3,3,0,0,1,24,32Z"/><path id="_Compound_Path_13" data-name="&lt;Compound Path&gt;" class="cls-7" d="M24,32a3,3,0,1,1-3,3A3,3,0,0,1,24,32Z"/><g id="_Clip_Group_" data-name="&lt;Clip Group&gt;"><g class="cls-8"><path id="_Path_3" data-name="&lt;Path&gt;" class="cls-1" d="M35.65,12.34,47.35,26a2.73,2.73,0,0,1-.4,3.94L26.24,46.27a3.83,3.83,0,0,1-4.5,0L10.55,37.45,0,48H48V0Z"/></g></g></svg>