<svg id="Layer_1" data-name="Layer 1" xmlns="http://www.w3.org/2000/svg" xmlns:xlink="http://www.w3.org/1999/xlink" viewBox="0 0 48 48"><defs><style>.cls-1{fill:none;}.cls-2,.cls-5{fill:#00a2d8;}.cls-3,.cls-7{fill:#fff;}.cls-3,.cls-4,.cls-5,.cls-7{fill-rule:evenodd;}.cls-4{fill:#7b4d87;}.cls-6{clip-path:url(#clip-path);}.cls-7{opacity:0.15;}</style><clipPath id="clip-path"><path id="_Clipping_Path_" data-name="&lt;Clipping Path&gt;" class="cls-1" d="M39-38.81h-2.5v-1.85c0-7.18-5.3-13.16-12.8-13.16-6.9,0-12.79,6.73-12.79,13.56v1.45H8.42c-2.35,0-4.13,1.61-4.71,4.83v20.65A5.34,5.34,0,0,0,8.42-9.81H39a5.34,5.34,0,0,0,4.71-3.51V-34C43.14-37.2,41.35-38.81,39-38.81Z"/></clipPath></defs><title>icons-azure</title><g id="_Group_" data-name="&lt;Group&gt;"><path class="cls-2" d="M28,7A10.06,10.06,0,0,1,38,17.1a9.89,9.89,0,0,1-.42,2.8l-1.41,4.82,5,.3A3,3,0,0,1,41,31H11a7,7,0,1,1,2.2-13.64l4.07,1.35,1.07-4.15A10,10,0,0,1,28,7m0-4A14,14,0,0,0,14.46,13.56,11,11,0,1,0,11,35H41a7,7,0,0,0,.42-14A14,14,0,0,0,28,3Z"/></g><path id="_Compound_Path_" data-name="&lt;Compound Path&gt;" class="cls-3" d="M27,31h5v4H27Z"/><path id="_Compound_Path_2" data-name="&lt;Compound Path&gt;" class="cls-4" d="M23,28a5,5,0,1,1-5,5A5,5,0,0,1,23,28Z"/><path id="_Path_" data-name="&lt;Path&gt;" class="cls-5" d="M23,20a13,13,0,0,0-9,3.65l2.93,2.74a9,9,0,1,1,0,13.23L14,42.35A13,13,0,1,0,23,20Z"/><g id="_Group_2" data-name="&lt;Group&gt;"><g id="_Clip_Group_" data-name="&lt;Clip Group&gt;"><g class="cls-6"><path id="_Compound_Path_3" data-name="&lt;Compound Path&gt;" class="cls-7" d="M1.71-60.81h38l-38,70Z"/></g></g></g></svg>