<svg id="Layer_1" data-name="Layer 1" xmlns="http://www.w3.org/2000/svg" viewBox="0 0 48 48"><defs><style>.cls-1{fill:#89919c;}.cls-2{fill:#00b8e2;}.cls-3{fill:#00a2d8;}</style></defs><title>icons-azure</title><path class="cls-1" d="M40.27,26a5.93,5.93,0,0,1,.6,2.59c0,.14,0,.27,0,.41H45V45H29V34.56H26V48H48V26Z"/><path class="cls-2" d="M17.69,25.51a7.08,7.08,0,0,1,7.06-7.06,5.93,5.93,0,0,1,2.12.35,9.29,9.29,0,0,1,4-5.29,8.53,8.53,0,0,0-4.41-1.24A8.77,8.77,0,0,0,18,18.8a8.86,8.86,0,0,0-2.12-.35,7.06,7.06,0,0,0,0,14.12h8.82A7.08,7.08,0,0,1,17.69,25.51Z"/><path class="cls-3" d="M34.9,24.62h-.35a9.39,9.39,0,0,0,.79-3.53,8.76,8.76,0,0,0-4.5-7.59,8.68,8.68,0,0,0-4,5.29,8.86,8.86,0,0,0-2.12-.35,7.06,7.06,0,0,0,0,14.12H35.34v-.09a3.94,3.94,0,0,0-.44-7.85Z"/><path class="cls-1" d="M19,34.56V45H3V29H7.57a9,9,0,0,1-.68-3H0V48H22V34.56Z"/><path class="cls-1" d="M9.64,19H3V3H19V13.36a10.84,10.84,0,0,1,3-2.1V0H0V22H7.57A9.09,9.09,0,0,1,9.64,19Z"/><path class="cls-1" d="M26,0V10.29l.42,0a10.48,10.48,0,0,1,2.58.34V3H45V19H37.1a10.38,10.38,0,0,1,.24,2.09,9,9,0,0,1,0,.91H48V0Z"/></svg>