<?xml version="1.0" encoding="utf-8"?>
<!-- Generator: Adobe Illustrator 20.1.0, SVG Export Plug-In . SVG Version: 6.00 Build 0)  -->
<svg version="1.1" id="Layer_1" xmlns="http://www.w3.org/2000/svg" xmlns:xlink="http://www.w3.org/1999/xlink" x="0px" y="0px"
	 viewBox="0 0 48 48" style="enable-background:new 0 0 48 48;" xml:space="preserve">
<style type="text/css">
	.st0{fill:#2F75BB;}
	.st1{opacity:0.15;fill:#FFFFFF;enable-background:new    ;}
</style>
<title>icons-azure</title>
<path id="_Compound_Path_" class="st0" d="M44.8,21.1L32.3,8.5L26.8,3c-1.6-1.5-4-1.5-5.6,0L3.1,21.1c-1.5,1.6-1.5,4,0,5.6
	l10.4,10.4l7.6,7.6c1.6,1.5,4,1.5,5.6,0l18.1-18.1C46.3,25.1,46.3,22.6,44.8,21.1z M24,5.9l5,6h-3v8h-4v-8h-3L24,5.9z M7,25.9v-4h8
	v-3l6,5l-6,5v-3H7z M24,40.9l-5-6h3v-8h4v8h3L24,40.9z M41,25.9h-8v3l-6-5l6-5v3h8V25.9z"/>
<g id="_Clip_Group_">
	<g>
		<defs>
			<path id="SVGID_1_" d="M44.8,21.1L32.3,8.5L26.8,3c-1.6-1.5-4-1.5-5.6,0L3.1,21.1c-1.5,1.6-1.5,4,0,5.6l10.4,10.4l7.6,7.6
				c1.6,1.5,4,1.5,5.6,0l18.1-18.1C46.3,25.1,46.3,22.6,44.8,21.1z M24,5.9l5,6h-3v8h-4v-8h-3L24,5.9z M7,25.9v-4h8v-3l6,5l-6,5v-3
				H7z M24,40.9l-5-6h3v-8h4v8h3L24,40.9z M41,25.9h-8v3l-6-5l6-5v3h8V25.9z"/>
		</defs>
		<clipPath id="SVGID_2_">
			<use xlink:href="#SVGID_1_"  style="overflow:visible;"/>
		</clipPath>
	</g>
</g>
<path class="st1" d="M26.8,3c-1.6-1.5-4-1.5-5.6,0L3.1,21.1c-1.5,1.6-1.5,4,0,5.6l9.1,9L35.8,12l-3.5-3.5L26.8,3z M15,28.9v-3H7v-4
	h8v-3l6,5L15,28.9z M26,11.9v8h-4v-8h-3l5-6l5,6H26z"/>
</svg>
