<?xml version="1.0" encoding="utf-8"?>
<!-- Generator: Adobe Illustrator 20.1.0, SVG Export Plug-In . SVG Version: 6.00 Build 0)  -->
<svg version="1.1" id="Layer_1" xmlns="http://www.w3.org/2000/svg" xmlns:xlink="http://www.w3.org/1999/xlink" x="0px" y="0px"
	 viewBox="0 0 48 48" style="enable-background:new 0 0 48 48;" xml:space="preserve">
<style type="text/css">
	.st0{fill:#F6931D;}
	.st1{fill:#F7B218;}
	.st2{fill:#5E6D80;}
</style>
<title>icons-azure</title>
<path class="st0" d="M32,2.1l-0.7,2.2L30.1,8l-0.6,1.8L29,11.5l-3.5,11c-0.1,0.1,0,0.3,0.1,0.4c0,0,0.1,0,0.2,0H29
	c0.1,0,0.2,0,0.2,0.1c0.1,0.1,0.1,0.2,0,0.3l-3.3,8c-0.1,0.2,0,0.3,0.1,0.1l10.6-11.9c0.2-0.2,0.1-0.3-0.1-0.3h-3.5h-0.6
	c-0.2,0-0.3-0.2-0.2-0.4l3.3-5.8l0.8-1.4l0.9-1.6l1.9-3.3l1.1-2C37.7,3.3,34.9,2.4,32,2.1z"/>
<path class="st1" d="M30.4,18.1c-0.2,0-0.3-0.2-0.2-0.4l3.3-5.7l0.8-1.4L35.2,9l1.9-3.4l1.1-1.9c-1.9-0.9-4-1.4-6.1-1.7l-0.7,2.2
	L30.1,8l-0.6,1.8L29,11.5l-3.2,10.3l-0.2,0.7c-0.1,0.1,0,0.3,0.1,0.4c0,0,0.1,0,0.2,0h3.2c0.1,0,0.2,0,0.2,0.1
	c0.1,0.1,0.1,0.2,0,0.3l-0.9,2.1l5.6-6.2h-1.6c-0.2,0-0.3-0.2-0.2-0.4l0.4-0.7L30.4,18.1L30.4,18.1z"/>
<path id="_Compound_Path_" class="st2" d="M13.2,39.2c0,0.1,0,0.2,0.1,0.3c-0.1-0.7-0.4-1.4-0.8-1.9l0.1,0.2l0.5-1.3l0,0L12.6,36
	L12,35.4l-1.3,0.5l0.2,0.1c-0.6-0.4-1.2-0.6-1.9-0.8l0.3,0.1l-0.5-1.3H7.2l-0.5,1.3L7,35.3c-0.6,0.2-1.2,0.4-1.7,0.6L4,35.4
	l-1.2,1.2l0.5,1.3l0.1-0.2c-0.4,0.6-0.7,1.2-0.8,1.9c0-0.1,0-0.2,0.1-0.3l-1.3,0.5v1.6l1.3,0.5c0-0.1,0-0.2-0.1-0.3
	c0.1,0.7,0.4,1.4,0.8,1.9l-0.1-0.2l-0.5,1.3L4,45.8l0,0l1.3-0.5L5,45.1c0.6,0.4,1.3,0.7,2,0.8l-0.3-0.1l0.5,1.3h1.6l0.5-1.3L9,45.9
	c0.7-0.1,1.4-0.4,1.9-0.8l-0.2,0.1l1.3,0.5l1.1-1.2l0,0l-0.5-1.3l-0.1,0.2c0.4-0.6,0.7-1.2,0.8-1.9c0,0.1,0,0.2-0.1,0.3l1.3-0.5
	v-1.6L13.2,39.2z M8,43.1c-1.4,0-2.5-1.1-2.5-2.5c0-1.4,1.1-2.5,2.5-2.5s2.5,1.1,2.5,2.5l0,0C10.5,42,9.4,43.1,8,43.1z"/>
<path id="_Path_" class="st2" d="M43.6,25.3c0.1-0.4,2.9-1.2,2.9-1.2v-4c0,0-2.8-0.8-2.9-1.2s-0.1-0.7-0.2-1s-0.2-0.6-0.3-1
	s2.1-3.1,2.1-3.1l-2-3.5c0,0-3.1,1.3-3.3,1s-0.6-0.6-0.9-0.9l-1.4,5.2c3.6,5.6,2,13-3.5,16.6s-13,2-16.6-3.5s-2-13,3.5-16.6
	c1.8-1.2,3.9-1.8,6-1.9l1.9-7h-3.3c0,0-0.8,2.9-1.2,3s-0.7,0.1-1,0.2s-0.6,0.2-1,0.3s-3.1-2.2-3.1-2.2l-3.5,2c0,0,1.3,3.1,1,3.4
	c-0.5,0.5-1,0.9-1.5,1.5C15,11.6,12,10.4,12,10.4l-2,3.5c0,0,2.2,2.6,2,3c-0.2,0.7-0.4,1.3-0.5,2c-0.1,0.4-2.9,1.2-2.9,1.2v4
	c0,0,2.8,0.8,2.9,1.2s0.1,0.7,0.2,1s0.2,0.6,0.3,1s-2.1,3.1-2.1,3.1l2,3.5c0,0,3.1-1.3,3.3-1c0.5,0.5,0.9,1,1.5,1.5
	c0.3,0.3-0.8,3.3-0.8,3.3l3.5,2c0,0,2.6-2.2,3-2.1c0.7,0.2,1.3,0.4,2,0.5c0.4,0.1,1.3,3,1.3,3h4c0,0,0.8-2.9,1.2-3s0.7-0.1,1-0.2
	c0.3-0.1,0.7-0.2,1-0.3s3.1,2.2,3.1,2.2l3.5-2c0,0-1.3-3.1-1-3.4c0.5-0.5,1-0.9,1.5-1.5c0.3-0.3,3.3,0.9,3.3,0.9l2-3.5
	c0,0-2.2-2.6-2-3C43.3,26.7,43.5,26,43.6,25.3z"/>
</svg>
