<?xml version="1.0" encoding="utf-8"?>
<!-- Generator: Adobe Illustrator 21.0.1, SVG Export Plug-In . SVG Version: 6.00 Build 0)  -->
<svg version="1.1" id="Layer_1" xmlns="http://www.w3.org/2000/svg" xmlns:xlink="http://www.w3.org/1999/xlink" x="0px" y="0px"
	 viewBox="0 0 48 48" style="enable-background:new 0 0 48 48;" xml:space="preserve">
<style type="text/css">
	.st0{fill-rule:evenodd;clip-rule:evenodd;fill:#85C9D5;}
	.st1{fill-rule:evenodd;clip-rule:evenodd;fill:#EDF0F4;}
	.st2{fill-rule:evenodd;clip-rule:evenodd;fill:#FFFFFF;}
	.st3{fill-rule:evenodd;clip-rule:evenodd;fill:#B5C0CE;}
	.st4{fill-rule:evenodd;clip-rule:evenodd;fill:#33B4DF;}
	.st5{fill-rule:evenodd;clip-rule:evenodd;fill:#7B4D87;}
	.st6{fill-rule:evenodd;clip-rule:evenodd;fill:#482255;}
	.st7{fill-rule:evenodd;clip-rule:evenodd;fill:none;}
	.st8{fill-rule:evenodd;clip-rule:evenodd;fill:#E3F3F6;}
	.st9{fill-rule:evenodd;clip-rule:evenodd;fill:#A3BF3A;}
	.st10{fill-rule:evenodd;clip-rule:evenodd;fill:#8BA63C;}
	.st11{fill-rule:evenodd;clip-rule:evenodd;fill:#5E6D80;}
	.st12{fill-rule:evenodd;clip-rule:evenodd;fill:#88909B;}
	.st13{fill:#85C9D5;}
	.st14{fill:#E56225;}
	.st15{fill-rule:evenodd;clip-rule:evenodd;fill:#2F75BB;}
	.st16{fill:#00A2D8;}
	.st17{fill-rule:evenodd;clip-rule:evenodd;fill:#00A2D8;}
	.st18{fill:#F79E1C;}
	.st19{fill-rule:evenodd;clip-rule:evenodd;fill:#2ABAEC;}
	.st20{fill:#F7B218;}
	.st21{fill:#017F6F;}
	.st22{fill:none;}
	.st23{fill:#FFFFFF;}
	.st24{fill:#2ABAEC;}
	.st25{fill:#323A45;}
	.st26{fill:#88909B;}
	.st27{fill:#A3BF3A;}
	.st28{fill:#80A23E;}
	.st29{fill:#7B4D87;}
	.st30{fill:#2F75BB;}
	.st31{opacity:0.15;fill-rule:evenodd;clip-rule:evenodd;fill:#FFFFFF;}
	.st32{fill:#A5D9E2;}
	.st33{fill-rule:evenodd;clip-rule:evenodd;fill:#323A45;}
	.st34{fill:#DAEFF3;}
	.st35{fill:#2A65AF;}
	.st36{fill:#F6ECF4;}
	.st37{fill-rule:evenodd;clip-rule:evenodd;fill:#F9BA19;}
	.st38{fill:#F6931D;}
	.st39{fill:#5E6D80;}
	.st40{fill:#6B903D;}
	.st41{fill-rule:evenodd;clip-rule:evenodd;}
	.st42{fill:#00B8E2;}
	.st43{fill:none;stroke:#85C9D5;stroke-width:0;stroke-linecap:round;stroke-linejoin:round;}
	.st44{fill:#2A89CA;}
	.st45{opacity:0.3;fill-rule:evenodd;clip-rule:evenodd;fill:#FFFFFF;}
	.st46{opacity:0.3;fill:#FFFFFF;}
	.st47{fill-rule:evenodd;clip-rule:evenodd;fill:#78B843;}
	.st48{fill:#78B843;}
	.st49{fill:#005BA3;}
	.st50{fill:#9AD9E9;}
	.st51{fill:#66C8E7;}
	.st52{fill:#33B4DF;}
	.st53{opacity:0.6;fill:#FFFFFF;}
	.st54{opacity:0.4;fill:#FFFFFF;}
	.st55{opacity:0.1;clip-path:url(#XMLID_81_);fill-rule:evenodd;clip-rule:evenodd;fill:#FFFFFF;}
	.st56{opacity:0.1;clip-path:url(#XMLID_125_);fill-rule:evenodd;clip-rule:evenodd;fill:#FFFFFF;}
	.st57{fill:#73BDCD;}
	.st58{opacity:0.6;fill-rule:evenodd;clip-rule:evenodd;fill:#FFFFFF;}
	.st59{fill-rule:evenodd;clip-rule:evenodd;fill:#80A23E;stroke:#FFFFFF;stroke-width:4;stroke-miterlimit:10;}
	.st60{fill-rule:evenodd;clip-rule:evenodd;fill:#80A23E;}
	.st61{clip-path:url(#XMLID_126_);fill:none;}
	.st62{fill-rule:evenodd;clip-rule:evenodd;fill:#F7B218;}
	.st63{opacity:0.35;clip-path:url(#XMLID_134_);fill-rule:evenodd;clip-rule:evenodd;fill:#FFFFFF;}
	.st64{opacity:0.8;fill:#FFFFFF;}
	.st65{opacity:0.35;clip-path:url(#XMLID_135_);fill-rule:evenodd;clip-rule:evenodd;fill:#FFFFFF;}
	.st66{fill-rule:evenodd;clip-rule:evenodd;fill:#DB5B26;}
	.st67{fill-rule:evenodd;clip-rule:evenodd;fill:#F58B1F;}
	.st68{opacity:0.35;clip-path:url(#XMLID_142_);fill-rule:evenodd;clip-rule:evenodd;fill:#FFFFFF;}
	.st69{fill-rule:evenodd;clip-rule:evenodd;fill:#404B59;}
	.st70{opacity:0.1;clip-path:url(#XMLID_146_);fill-rule:evenodd;clip-rule:evenodd;fill:#FFFFFF;}
	.st71{fill-rule:evenodd;clip-rule:evenodd;fill:#D1B0D3;}
	.st72{opacity:0.15;clip-path:url(#XMLID_147_);fill-rule:evenodd;clip-rule:evenodd;fill:#FFFFFF;}
	.st73{fill-rule:evenodd;clip-rule:evenodd;fill:#15B2E7;}
	.st74{fill-rule:evenodd;clip-rule:evenodd;fill:#E1F3F8;}
	.st75{opacity:0.15;clip-path:url(#XMLID_158_);fill-rule:evenodd;clip-rule:evenodd;fill:#FFFFFF;}
	.st76{opacity:0.15;clip-path:url(#XMLID_160_);fill-rule:evenodd;clip-rule:evenodd;fill:#FFFFFF;}
	.st77{opacity:0.3;clip-path:url(#XMLID_227_);fill-rule:evenodd;clip-rule:evenodd;fill:#FFFFFF;}
	.st78{opacity:0.15;clip-path:url(#XMLID_228_);fill-rule:evenodd;clip-rule:evenodd;fill:#FFFFFF;}
	.st79{fill-rule:evenodd;clip-rule:evenodd;fill:#7C8737;}
	.st80{opacity:0.3;clip-path:url(#XMLID_229_);fill-rule:evenodd;clip-rule:evenodd;fill:#FFFFFF;}
	.st81{opacity:0.15;clip-path:url(#XMLID_230_);fill-rule:evenodd;clip-rule:evenodd;fill:#FFFFFF;}
	.st82{opacity:0.1;clip-path:url(#XMLID_233_);fill-rule:evenodd;clip-rule:evenodd;fill:#F1F1F2;}
	.st83{fill-rule:evenodd;clip-rule:evenodd;fill:#008EBE;}
	.st84{fill:#CCCBCB;}
	.st85{opacity:0.1;fill-rule:evenodd;clip-rule:evenodd;fill:#FFFFFF;}
	.st86{opacity:0.1;clip-path:url(#XMLID_234_);fill-rule:evenodd;clip-rule:evenodd;fill:#FFFFFF;}
	.st87{opacity:0.1;clip-path:url(#XMLID_235_);fill-rule:evenodd;clip-rule:evenodd;fill:#FFFFFF;}
	.st88{display:none;}
	.st89{fill:#45B6F4;}
	.st90{fill:#89919C;}
	.st91{fill:#A5BF09;}
	.st92{fill:#0078D7;}
	.st93{fill-rule:evenodd;clip-rule:evenodd;fill:#0078D7;}
</style>
<g>
	<path class="st91" d="M40.9,38.7L39,40L18.9,10.1l1.9-1.2L40.9,38.7z"/>
	<path class="st91" d="M29.8,22.8l0.2,2.3L6.9,26.9l-0.2-2.3L29.8,22.8z"/>
	<path class="st91" d="M28.9,22.8l1.9,1.1l-8.4,14.6l-1.9-1.1L28.9,22.8z"/>
	<path class="st92" d="M35.5,24c0,3-2.5,5.5-5.5,5.5c-3,0-5.5-2.5-5.5-5.5c0-3,2.5-5.5,5.5-5.5C33,18.5,35.5,21,35.5,24z"/>
	<path class="st92" d="M23.8,8.7c0,2.5-2,4.5-4.5,4.5c-2.5,0-4.5-2-4.5-4.5s2-4.5,4.5-4.5C21.8,4.2,23.8,6.2,23.8,8.7z"/>
	<path class="st92" d="M44.5,39.3c0,2.5-2,4.5-4.5,4.5c-2.5,0-4.5-2-4.5-4.5c0-2.5,2-4.5,4.5-4.5C42.5,34.8,44.5,36.9,44.5,39.3z"/>
	<path class="st92" d="M25.3,37.2c0,1.9-1.6,3.5-3.5,3.5c-1.9,0-3.5-1.6-3.5-3.5s1.6-3.5,3.5-3.5C23.7,33.7,25.3,35.3,25.3,37.2z"/>
	<path class="st92" d="M10.5,25.4c0,1.9-1.6,3.5-3.5,3.5c-1.9,0-3.5-1.6-3.5-3.5c0-1.9,1.6-3.5,3.5-3.5
		C8.9,21.9,10.5,23.5,10.5,25.4z"/>
</g>
<path class="st93" d="M13.5,42H6v-7.5C6,34.2,5.8,34,5.5,34h-5C0.2,34,0,34.2,0,34.5v8v5C0,47.8,0.2,48,0.5,48h5h8
	c0.3,0,0.5-0.2,0.5-0.5v-5C14,42.2,13.8,42,13.5,42z"/>
<path class="st93" d="M34.5,6H42v7.5c0,0.3,0.2,0.5,0.5,0.5h5c0.3,0,0.5-0.2,0.5-0.5v-8v-5C48,0.2,47.8,0,47.5,0h-5h-8
	C34.2,0,34,0.2,34,0.5v5C34,5.8,34.2,6,34.5,6z"/>
</svg>
