<svg id="Layer_1" data-name="Layer 1" xmlns="http://www.w3.org/2000/svg" viewBox="0 0 48 48"><defs><style>.cls-1{fill:#7b4d87;}</style></defs><title>icons-azure</title><g id="_Group_" data-name="&lt;Group&gt;"><g id="_Group_2" data-name="&lt;Group&gt;"><polygon id="_Path_" data-name="&lt;Path&gt;" class="cls-1" points="16.12 8.11 16.12 20.11 23.12 18.11 23.12 10.11 16.12 8.11"/><rect id="_Path_2" data-name="&lt;Path&gt;" class="cls-1" x="14.12" y="8" width="1" height="12.23"/><polygon id="_Path_3" data-name="&lt;Path&gt;" class="cls-1" points="9.12 10.9 9.12 17.67 8.12 17.67 8.12 10.57 9.12 10.9"/><rect id="_Path_4" data-name="&lt;Path&gt;" class="cls-1" x="10.12" y="9.85" width="1" height="8.33"/><rect id="_Path_5" data-name="&lt;Path&gt;" class="cls-1" x="12.12" y="8.95" width="1" height="10.17"/><polygon id="_Path_6" data-name="&lt;Path&gt;" class="cls-1" points="8.31 11.57 8.12 10.57 14.12 8 14.88 8.76 8.31 11.57"/><polygon id="_Path_7" data-name="&lt;Path&gt;" class="cls-1" points="14.12 20.23 8.12 17.67 8.31 16.65 15.12 19.57 14.12 20.23"/></g><g id="_Group_3" data-name="&lt;Group&gt;"><polygon id="_Path_8" data-name="&lt;Path&gt;" class="cls-1" points="33 8.13 33 20.13 40 18.13 40 10.13 33 8.13"/><rect id="_Path_9" data-name="&lt;Path&gt;" class="cls-1" x="31" y="8.02" width="1" height="12.23"/><polygon id="_Path_10" data-name="&lt;Path&gt;" class="cls-1" points="26 10.92 26 17.69 25 17.69 25 10.59 26 10.92"/><rect id="_Path_11" data-name="&lt;Path&gt;" class="cls-1" x="27" y="9.88" width="1" height="8.33"/><rect id="_Path_12" data-name="&lt;Path&gt;" class="cls-1" x="29" y="8.97" width="1" height="10.17"/><polygon id="_Path_13" data-name="&lt;Path&gt;" class="cls-1" points="25.2 11.59 25 10.59 31 8.02 31.76 8.78 25.2 11.59"/><polygon id="_Path_14" data-name="&lt;Path&gt;" class="cls-1" points="31 20.25 25 17.69 25.2 16.68 32 19.59 31 20.25"/></g><g id="_Group_4" data-name="&lt;Group&gt;"><polygon id="_Path_15" data-name="&lt;Path&gt;" class="cls-1" points="41 19.63 41 31.63 48 29.63 48 21.63 41 19.63"/><rect id="_Path_16" data-name="&lt;Path&gt;" class="cls-1" x="39" y="19.52" width="1" height="12.23"/><polygon id="_Path_17" data-name="&lt;Path&gt;" class="cls-1" points="34 22.42 34 29.19 33 29.19 33 22.09 34 22.42"/><rect id="_Path_18" data-name="&lt;Path&gt;" class="cls-1" x="35" y="21.38" width="1" height="8.33"/><rect id="_Path_19" data-name="&lt;Path&gt;" class="cls-1" x="37" y="20.47" width="1" height="10.17"/><polygon id="_Path_20" data-name="&lt;Path&gt;" class="cls-1" points="33.2 23.09 33 22.09 39 19.52 39.76 20.28 33.2 23.09"/><polygon id="_Path_21" data-name="&lt;Path&gt;" class="cls-1" points="39 31.75 33 29.19 33.2 28.18 40 31.09 39 31.75"/></g><g id="_Group_5" data-name="&lt;Group&gt;"><polygon id="_Path_22" data-name="&lt;Path&gt;" class="cls-1" points="32 31.36 32 43.36 39 41.36 39 33.36 32 31.36"/><rect id="_Path_23" data-name="&lt;Path&gt;" class="cls-1" x="30" y="31.25" width="1" height="12.23"/><polygon id="_Path_24" data-name="&lt;Path&gt;" class="cls-1" points="25 34.15 25 40.92 24 40.92 24 33.82 25 34.15"/><rect id="_Path_25" data-name="&lt;Path&gt;" class="cls-1" x="26" y="33.1" width="1" height="8.33"/><rect id="_Path_26" data-name="&lt;Path&gt;" class="cls-1" x="28" y="32.2" width="1" height="10.17"/><polygon id="_Path_27" data-name="&lt;Path&gt;" class="cls-1" points="24.2 34.82 24 33.82 30 31.25 30.76 32.01 24.2 34.82"/><polygon id="_Path_28" data-name="&lt;Path&gt;" class="cls-1" points="30 43.48 24 40.92 24.2 39.9 31 42.82 30 43.48"/></g><g id="_Group_6" data-name="&lt;Group&gt;"><polygon id="_Path_29" data-name="&lt;Path&gt;" class="cls-1" points="16 31.36 16 43.36 23 41.36 23 33.36 16 31.36"/><rect id="_Path_30" data-name="&lt;Path&gt;" class="cls-1" x="14" y="31.25" width="1" height="12.23"/><polygon id="_Path_31" data-name="&lt;Path&gt;" class="cls-1" points="9 34.15 9 40.92 8 40.92 8 33.82 9 34.15"/><rect id="_Path_32" data-name="&lt;Path&gt;" class="cls-1" x="10" y="33.1" width="1" height="8.33"/><rect id="_Path_33" data-name="&lt;Path&gt;" class="cls-1" x="12" y="32.2" width="1" height="10.17"/><polygon id="_Path_34" data-name="&lt;Path&gt;" class="cls-1" points="8.2 34.82 8 33.82 14 31.25 14.76 32.01 8.2 34.82"/><polygon id="_Path_35" data-name="&lt;Path&gt;" class="cls-1" points="14 43.48 8 40.92 8.2 39.9 15 42.82 14 43.48"/></g><g id="_Group_7" data-name="&lt;Group&gt;"><polygon id="_Path_36" data-name="&lt;Path&gt;" class="cls-1" points="8 19.11 8 31.11 15 29.11 15 21.11 8 19.11"/><rect id="_Path_37" data-name="&lt;Path&gt;" class="cls-1" x="6" y="19" width="1" height="12.23"/><polygon id="_Path_38" data-name="&lt;Path&gt;" class="cls-1" points="1 21.9 1 28.67 0 28.67 0 21.57 1 21.9"/><rect id="_Path_39" data-name="&lt;Path&gt;" class="cls-1" x="2" y="20.85" width="1" height="8.33"/><rect id="_Path_40" data-name="&lt;Path&gt;" class="cls-1" x="4" y="19.95" width="1" height="10.17"/><polygon id="_Path_41" data-name="&lt;Path&gt;" class="cls-1" points="0.2 22.57 0 21.57 6 19 6.76 19.76 0.2 22.57"/><polygon id="_Path_42" data-name="&lt;Path&gt;" class="cls-1" points="6 31.23 0 28.67 0.2 27.65 7 30.57 6 31.23"/></g><g id="_Group_8" data-name="&lt;Group&gt;"><polygon id="_Path_43" data-name="&lt;Path&gt;" class="cls-1" points="25 19.36 25 31.36 32 29.36 32 21.36 25 19.36"/><rect id="_Path_44" data-name="&lt;Path&gt;" class="cls-1" x="23" y="19.25" width="1" height="12.23"/><polygon id="_Path_45" data-name="&lt;Path&gt;" class="cls-1" points="18 22.15 18 28.92 17 28.92 17 21.82 18 22.15"/><rect id="_Path_46" data-name="&lt;Path&gt;" class="cls-1" x="19" y="21.1" width="1" height="8.33"/><rect id="_Path_47" data-name="&lt;Path&gt;" class="cls-1" x="21" y="20.2" width="1" height="10.17"/><polygon id="_Path_48" data-name="&lt;Path&gt;" class="cls-1" points="17.2 22.82 17 21.82 23 19.25 23.76 20.01 17.2 22.82"/><polygon id="_Path_49" data-name="&lt;Path&gt;" class="cls-1" points="23 31.48 17 28.92 17.2 27.9 24 30.82 23 31.48"/></g></g></svg>