<svg id="Layer_1" data-name="Layer 1" xmlns="http://www.w3.org/2000/svg" viewBox="0 0 48 48"><defs><style>.cls-1,.cls-2{fill:none;}.cls-10,.cls-2,.cls-5{fill-rule:evenodd;}.cls-3{fill:#2abaec;}.cls-4{fill:#00a2d8;}.cls-5{fill:#edf0f4;}.cls-6{fill:#a3bf3a;}.cls-7{fill:#80a23e;}.cls-8{fill:#2f75bb;}.cls-9{fill:#005ba3;}.cls-10{fill:#fff;}</style></defs><title>icons-azure</title><g id="_Group_" data-name="&lt;Group&gt;"><g id="_Group_2" data-name="&lt;Group&gt;"><path id="_Compound_Path_" data-name="&lt;Compound Path&gt;" class="cls-1" d="M22.19,33.33A1.79,1.79,0,0,0,24,31.54c0-1.33.76-3.27,1.63-3.6v0c-.87-.34-1.63-2.22-1.63-3.52,0,0-.32-1.79-1.79-1.79l-.06-2.69a6.67,6.67,0,0,1,3.49.62,3.53,3.53,0,0,1,1,3v1.79c0,1,2.61.9,2.65.89v3.51s-2.6-.22-2.65,1v2.69c0,1.11.06,1.21-.69,1.93s-2.55.75-3.78.75Z"/><path id="_Compound_Path_2" data-name="&lt;Compound Path&gt;" class="cls-1" d="M16.82,33.33A1.82,1.82,0,0,1,15,31.54c0-1.33-.78-3.27-1.64-3.6v0c.85-.34,1.64-2.22,1.64-3.52,0,0-.34-1.85,1.79-1.85V19.9a6.42,6.42,0,0,0-3.42.62,2,2,0,0,0-1.06,2.06v2.69c0,1-2.64.9-2.68.89v3.51s2.68,0,2.68,1v2.69c0,1.11,0,1.21.71,1.93s2.55.75,3.76.75Z"/><path id="_Compound_Path_3" data-name="&lt;Compound Path&gt;" class="cls-2" d="M19.51,7.37c6.92,0,12.53,2,12.53,4.48s-5.61,4.48-12.53,4.48S7,14.32,7,11.85,12.59,7.37,19.51,7.37Z"/><path id="_Compound_Path_4" data-name="&lt;Compound Path&gt;" class="cls-2" d="M19.51,2.9C26.43,2.9,32,4.9,32,7.37s-5.61,4.48-12.53,4.48S7,9.84,7,7.37,12.59,2.9,19.51,2.9Z"/><path id="_Compound_Path_5" data-name="&lt;Compound Path&gt;" class="cls-2" d="M20,2C29.1,2,36.51,4.8,36.51,8.27S29.1,14.53,20,14.53,3.4,11.73,3.4,8.27,10.81,2,20,2Z"/><path id="_Compound_Path_6" data-name="&lt;Compound Path&gt;" class="cls-2" d="M3.4,8.27H36.51l-.14,29.42H3.4Z"/><path id="_Compound_Path_7" data-name="&lt;Compound Path&gt;" class="cls-2" d="M19.89,31.44c9.11,0,16.49,2.8,16.49,6.25S29,43.93,19.89,43.93,3.4,41.14,3.4,37.69,10.78,31.44,19.89,31.44Z"/><path id="_Compound_Path_8" data-name="&lt;Compound Path&gt;" class="cls-2" d="M19.51,2h17V44.07h-17Z"/><path id="_Compound_Path_9" data-name="&lt;Compound Path&gt;" class="cls-2" d="M3.4,8.27H36.51v29.6H3.4Z"/><path id="_Compound_Path_10" data-name="&lt;Compound Path&gt;" class="cls-2" d="M20,31.67c9.14,0,16.56,2.77,16.56,6.2S29.1,44.07,20,44.07,3.4,41.29,3.4,37.87,10.81,31.67,20,31.67Z"/><path id="_Path_" data-name="&lt;Path&gt;" class="cls-3" d="M2.5,8.3V37.9c0,3.42,7.41,6.2,16.56,6.2s16.56-2.78,16.56-6.2V8.3Z"/><g id="_Group_3" data-name="&lt;Group&gt;"><path id="_Path_2" data-name="&lt;Path&gt;" class="cls-4" d="M2.5,8.3V37.9c0,3.37,7.17,6.1,16.11,6.19V8.3Z"/></g><path id="_Compound_Path_11" data-name="&lt;Compound Path&gt;" class="cls-5" d="M19.06,2c9.14,0,16.56,2.8,16.56,6.27s-7.41,6.27-16.56,6.27S2.5,11.73,2.5,8.27,9.92,2,19.06,2"/><g id="_Group_4" data-name="&lt;Group&gt;"><path id="_Path_3" data-name="&lt;Path&gt;" class="cls-6" d="M29.9,9.7C31,9,31.59,8.27,31.59,7.46,31.59,5,26,3,19.06,3S6.53,5,6.53,7.46c0,.82.62,1.58,1.69,2.24,2.17-1.34,6.21-2.24,10.84-2.24S27.73,8.36,29.9,9.7Z"/><path id="_Path_4" data-name="&lt;Path&gt;" class="cls-7" d="M29.9,9.7c-2.17-1.34-6.2-2.24-10.84-2.24s-8.67.9-10.84,2.24c2.17,1.34,6.21,2.24,10.84,2.24S27.73,11,29.9,9.7Z"/></g><path id="_Compound_Path_12" data-name="&lt;Compound Path&gt;" class="cls-2" d="M2.5,8.3H35.62l-.14,29.42H2.5Z"/><path id="_Compound_Path_13" data-name="&lt;Compound Path&gt;" class="cls-2" d="M19,44C9.88,44,2.5,41.17,2.5,37.72S9.88,31.48,19,31.48s16.49,2.8,16.49,6.25S28.1,44,19,44"/></g><path id="_Compound_Path_14" data-name="&lt;Compound Path&gt;" class="cls-1" d="M36.62,39.29a1.19,1.19,0,0,0,1.19-1.19c0-.88.51-2.17,1.08-2.39v0c-.58-.23-1.08-1.48-1.08-2.34,0,0-.21-1.19-1.19-1.19l0-1.78a4.43,4.43,0,0,1,2.31.41,2.34,2.34,0,0,1,.69,2v1.19c0,.69,1.73.6,1.76.59v2.33s-1.72-.15-1.76.64v1.78c0,.74,0,.8-.46,1.28a4.38,4.38,0,0,1-2.51.5Z"/><path id="_Compound_Path_15" data-name="&lt;Compound Path&gt;" class="cls-1" d="M33.06,39.29a1.21,1.21,0,0,1-1.19-1.19c0-.88-.52-2.17-1.08-2.39v0a3,3,0,0,0,1.08-2.34s-.22-1.23,1.19-1.23V30.38a4.27,4.27,0,0,0-2.27.41,1.33,1.33,0,0,0-.7,1.37v1.78c0,.69-1.75.6-1.78.59v2.33s1.78,0,1.78.64v1.78c0,.74,0,.8.47,1.28a4.35,4.35,0,0,0,2.5.5Z"/><path id="_Compound_Path_16" data-name="&lt;Compound Path&gt;" class="cls-2" d="M34.84,22.06c4.59,0,8.32,1.33,8.32,3s-3.72,3-8.32,3-8.32-1.33-8.32-3S30.25,22.06,34.84,22.06Z"/><path id="_Compound_Path_17" data-name="&lt;Compound Path&gt;" class="cls-2" d="M34.84,19.09c4.59,0,8.32,1.33,8.32,3s-3.72,3-8.32,3-8.32-1.33-8.32-3S30.25,19.09,34.84,19.09Z"/><path id="_Compound_Path_18" data-name="&lt;Compound Path&gt;" class="cls-2" d="M35.14,18.5c6.07,0,11,1.86,11,4.16s-4.92,4.16-11,4.16-11-1.86-11-4.16S29.07,18.5,35.14,18.5Z"/><path id="_Compound_Path_19" data-name="&lt;Compound Path&gt;" class="cls-2" d="M24.15,22.66h22L46,42.19H24.15Z"/><path id="_Compound_Path_20" data-name="&lt;Compound Path&gt;" class="cls-2" d="M35.09,38C41.13,38,46,39.9,46,42.19s-4.9,4.15-10.94,4.15-10.94-1.86-10.94-4.15S29,38,35.09,38Z"/><path id="_Compound_Path_21" data-name="&lt;Compound Path&gt;" class="cls-2" d="M34.84,18.5H46.13V46.42H34.84Z"/><path id="_Compound_Path_22" data-name="&lt;Compound Path&gt;" class="cls-2" d="M24.15,22.66h22V42.31h-22Z"/><path id="_Compound_Path_23" data-name="&lt;Compound Path&gt;" class="cls-2" d="M35.14,38.19c6.07,0,11,1.84,11,4.11s-4.92,4.11-11,4.11-11-1.84-11-4.11S29.07,38.19,35.14,38.19Z"/><path id="_Path_5" data-name="&lt;Path&gt;" class="cls-8" d="M23.55,22.68V42.33c0,2.27,4.92,4.11,11,4.11s11-1.84,11-4.11V22.68Z"/><g id="_Group_5" data-name="&lt;Group&gt;"><path id="_Path_6" data-name="&lt;Path&gt;" class="cls-9" d="M23.55,22.68V42.33c0,2.23,4.76,4,10.69,4.11V22.68Z"/></g><g id="_Group_6" data-name="&lt;Group&gt;"><path id="_Compound_Path_24" data-name="&lt;Compound Path&gt;" class="cls-10" d="M41.4,26.59l-12.9,9.3h6l-6.75,9,14.75-11h-6Z"/></g><path id="_Compound_Path_25" data-name="&lt;Compound Path&gt;" class="cls-5" d="M34.54,18.5c6.07,0,11,1.86,11,4.16s-4.92,4.16-11,4.16-11-1.86-11-4.16,4.92-4.16,11-4.16"/><g id="_Group_7" data-name="&lt;Group&gt;"><path id="_Path_7" data-name="&lt;Path&gt;" class="cls-6" d="M41.74,23.61c.71-.44,1.12-.94,1.12-1.49,0-1.64-3.72-3-8.32-3s-8.32,1.33-8.32,3c0,.54.41,1,1.12,1.49a14.91,14.91,0,0,1,7.2-1.49A14.91,14.91,0,0,1,41.74,23.61Z"/><path id="_Path_8" data-name="&lt;Path&gt;" class="cls-7" d="M41.74,23.61a14.91,14.91,0,0,0-7.19-1.49,14.91,14.91,0,0,0-7.2,1.49,14.92,14.92,0,0,0,7.2,1.48A14.91,14.91,0,0,0,41.74,23.61Z"/></g><path id="_Compound_Path_26" data-name="&lt;Compound Path&gt;" class="cls-2" d="M23.55,22.68h22l-.09,19.53H23.55Z"/><path id="_Compound_Path_27" data-name="&lt;Compound Path&gt;" class="cls-2" d="M34.5,46.35c-6,0-10.94-1.86-10.94-4.15s4.9-4.15,10.94-4.15,10.94,1.86,10.94,4.15-4.9,4.15-10.94,4.15"/></g></svg>