<svg id="Layer_1" data-name="Layer 1" xmlns="http://www.w3.org/2000/svg" xmlns:xlink="http://www.w3.org/1999/xlink" viewBox="0 0 48 48"><defs><style>.cls-1,.cls-2{fill:none;}.cls-1{clip-rule:evenodd;}.cls-10,.cls-11,.cls-2,.cls-3,.cls-4,.cls-5,.cls-7{fill-rule:evenodd;}.cls-3{fill:#2f75bb;}.cls-4,.cls-8{fill:#5e6d80;}.cls-11,.cls-5,.cls-6{fill:#fff;}.cls-5{opacity:0.1;}.cls-7{fill:#2abaec;}.cls-9{clip-path:url(#clip-path);}.cls-10{fill:#85c9d5;}.cls-12{clip-path:url(#clip-path-2);}</style><clipPath id="clip-path"><path id="_Compound_Clipping_Path_" data-name="&lt;Compound Clipping Path&gt;" class="cls-1" d="M9.63,12.5h28v24h-28Z"/></clipPath><clipPath id="clip-path-2"><path id="_Compound_Clipping_Path_2" data-name="&lt;Compound Clipping Path&gt;" class="cls-1" d="M18.63,21.5h28v24h-28Z"/></clipPath></defs><title>icons-azure</title><path id="_Compound_Path_" data-name="&lt;Compound Path&gt;" class="cls-2" d="M22.63,23.5h11v2h-11Z"/><path id="_Compound_Path_2" data-name="&lt;Compound Path&gt;" class="cls-2" d="M22.63,30.5h11v2h-11Z"/><g id="_Group_" data-name="&lt;Group&gt;"><path class="cls-3" d="M2.63,3.5a1,1,0,0,1,1-1h26a1,1,0,0,1,1,1v22a1,1,0,0,1-1,1h-26a1,1,0,0,1-1-1Z"/></g><g id="_Group_2" data-name="&lt;Group&gt;"><path class="cls-4" d="M2.63,3.5a1,1,0,0,1,1-1h26a1,1,0,0,1,1,1v4a1,1,0,0,1-1,1h-26a1,1,0,0,1-1-1Z"/></g><path id="_Compound_Path_3" data-name="&lt;Compound Path&gt;" class="cls-4" d="M2.63,4.91h28V8.5h-28Z"/><path id="_Compound_Path_4" data-name="&lt;Compound Path&gt;" class="cls-5" d="M2.63.5h28l-28,28Z"/><polygon class="cls-6" points="14.62 11.69 13.36 10.5 9.54 14.19 7.88 12.63 6.63 13.8 9.5 16.5 9.63 16.37 9.7 16.44 14.62 11.69"/><polygon class="cls-6" points="14.43 18.61 13.21 17.38 9.46 21.13 7.84 19.5 6.63 20.71 9.41 23.5 9.54 23.37 9.61 23.43 14.43 18.61"/><path id="_Compound_Path_5" data-name="&lt;Compound Path&gt;" class="cls-2" d="M15.63,13.5h11v2h-11Z"/><polygon id="_Path_" data-name="&lt;Path&gt;" class="cls-2" points="37.63 22.5 37.63 12.5 30.63 12.5 30.63 2.5 2.63 2.5 2.63 26.5 9.63 26.5 9.63 36.5 18.63 36.5 18.63 46.5 46.63 46.5 46.63 22.5 37.63 22.5"/><path id="_Compound_Path_6" data-name="&lt;Compound Path&gt;" class="cls-4" d="M9.63,14.78h28V18.5h-28Z"/><path id="_Compound_Path_7" data-name="&lt;Compound Path&gt;" class="cls-2" d="M15.63,20.5h11v2h-11Z"/><g id="_Group_3" data-name="&lt;Group&gt;"><path class="cls-7" d="M9.63,13.5a1,1,0,0,1,1-1h26a1,1,0,0,1,1,1v22a1,1,0,0,1-1,1h-26a1,1,0,0,1-1-1Z"/></g><g id="_Group_4" data-name="&lt;Group&gt;"><path class="cls-4" d="M9.63,13.5a1,1,0,0,1,1-1h26a1,1,0,0,1,1,1v4a1,1,0,0,1-1,1h-26a1,1,0,0,1-1-1Z"/></g><rect class="cls-8" x="9.63" y="16.84" width="28" height="1.66"/><polygon class="cls-6" points="21.43 28.61 20.21 27.38 16.46 31.13 14.84 29.5 13.63 30.71 16.41 33.5 16.54 33.37 16.61 33.43 21.43 28.61"/><polygon class="cls-6" points="21.62 21.69 20.36 20.5 16.54 24.18 14.88 22.63 13.63 23.8 16.5 26.5 16.64 26.37 16.7 26.44 21.62 21.69"/><g class="cls-9"><path id="_Compound_Path_8" data-name="&lt;Compound Path&gt;" class="cls-5" d="M9.63,12.5h28l-28,26Z"/></g><g id="_Group_5" data-name="&lt;Group&gt;"><path class="cls-10" d="M18.63,22.5a1,1,0,0,1,1-1h26a1,1,0,0,1,1,1v22a1,1,0,0,1-1,1h-26a1,1,0,0,1-1-1Z"/></g><path id="_Compound_Path_9" data-name="&lt;Compound Path&gt;" class="cls-11" d="M31.63,32.5h11v2h-11Z"/><path id="_Compound_Path_10" data-name="&lt;Compound Path&gt;" class="cls-11" d="M31.63,39.5h11v2h-11Z"/><polygon class="cls-6" points="30.62 30.69 29.36 29.5 25.54 33.19 23.88 31.63 22.63 32.8 25.5 35.5 25.64 35.37 25.7 35.44 30.62 30.69"/><g id="_Group_6" data-name="&lt;Group&gt;"><path class="cls-4" d="M18.63,22.5a1,1,0,0,1,1-1h26a1,1,0,0,1,1,1v4a1,1,0,0,1-1,1h-26a1,1,0,0,1-1-1Z"/></g><path id="_Compound_Path_11" data-name="&lt;Compound Path&gt;" class="cls-4" d="M18.63,24h28v3.5h-28Z"/><polygon class="cls-6" points="30.43 38.61 29.21 37.38 25.46 41.13 23.84 39.5 22.63 40.71 25.41 43.5 25.54 43.37 25.61 43.43 30.43 38.61"/><g class="cls-12"><path id="_Compound_Path_12" data-name="&lt;Compound Path&gt;" class="cls-5" d="M18.63,20.62h28l-28,25.88Z"/></g></svg>