<svg id="Layer_1" data-name="Layer 1" xmlns="http://www.w3.org/2000/svg" viewBox="0 0 48 48"><defs><style>.cls-1{fill:#00b8e2;}.cls-2{fill:#5e6d80;fill-rule:evenodd;}.cls-3{fill:#00a2d8;}</style></defs><title>icons-azure</title><path class="cls-1" d="M43.5,26.5c-.12,0-.23,0-.35,0a10.11,10.11,0,0,0-9.27-14,9.9,9.9,0,0,0-9.5,7.36A8,8,0,1,0,22,35.5H44v-.05a4.49,4.49,0,0,0-.5-8.95Z"/><path id="_Compound_Path_" data-name="&lt;Compound Path&gt;" class="cls-2" d="M8,15.5H26a2,2,0,0,1,0,4H8a2,2,0,0,1,0-4Z"/><path id="_Compound_Path_2" data-name="&lt;Compound Path&gt;" class="cls-2" d="M2,23.5H16a2,2,0,0,1,0,4H2a2,2,0,0,1,0-4Z"/><path id="_Compound_Path_3" data-name="&lt;Compound Path&gt;" class="cls-2" d="M5,31.5H23a2,2,0,0,1,0,4H5a2,2,0,0,1,0-4Z"/><path class="cls-1" d="M24,27.5a8,8,0,0,1,10.38-7.64,10.06,10.06,0,0,1,4.54-6,10.06,10.06,0,0,0-5-1.37,9.9,9.9,0,0,0-9.5,7.36A8,8,0,1,0,22,35.5H32A8,8,0,0,1,24,27.5Z"/><path class="cls-3" d="M43.5,26.5c-.12,0-.23,0-.35,0a9.9,9.9,0,0,0-4.23-12.66,10.06,10.06,0,0,0-4.54,6A8,8,0,1,0,32,35.5H44v-.05a4.49,4.49,0,0,0-.5-8.95Z"/></svg>