<svg id="Layer_1" data-name="Layer 1" xmlns="http://www.w3.org/2000/svg" xmlns:xlink="http://www.w3.org/1999/xlink" viewBox="0 0 48 48"><defs><style>.cls-1,.cls-2{fill:none;}.cls-11,.cls-2,.cls-7{fill-rule:evenodd;}.cls-3{fill:#00a2d8;}.cls-4{fill:#2abaec;}.cls-5{fill:#323a45;}.cls-6{fill:#88909b;}.cls-11,.cls-7{fill:#fff;}.cls-8{fill:#a3bf3a;}.cls-9{fill:#80a23e;}.cls-10{clip-path:url(#clip-path);}.cls-11{opacity:0.15;}</style><clipPath id="clip-path"><path id="_Compound_Clipping_Path_" data-name="&lt;Compound Clipping Path&gt;" class="cls-1" d="M47.28-20.52,26.28-8l-21-12.52v-23L26.28-56l21,12.52Z"/></clipPath></defs><title>icons-azure</title><g id="_Group_" data-name="&lt;Group&gt;"><g id="_Group_2" data-name="&lt;Group&gt;"><path id="_Compound_Path_" data-name="&lt;Compound Path&gt;" class="cls-2" d="M23.5,6.5h19v28h-19Z"/><g id="_Group_3" data-name="&lt;Group&gt;"><path id="_Path_" data-name="&lt;Path&gt;" class="cls-3" d="M5.5,7.5V40.57c0,3.76,8,6.82,18,6.92V26.16h19V7.5Z"/><path id="_Path_2" data-name="&lt;Path&gt;" class="cls-4" d="M23.5,47.49H24c10.22,0,18.5-3.1,18.5-6.93V26.16h-19Z"/></g><path id="_Compound_Path_2" data-name="&lt;Compound Path&gt;" class="cls-2" d="M5.5,7.5h37l-.16,32.87H5.5Z"/><path id="_Compound_Path_3" data-name="&lt;Compound Path&gt;" class="cls-2" d="M23.92,33.4c10.17,0,18.42,3.12,18.42,7s-8.25,7-18.42,7S5.5,44.23,5.5,40.37,13.75,33.4,23.92,33.4Z"/><g id="_Group_4" data-name="&lt;Group&gt;"><path id="_Path_3" data-name="&lt;Path&gt;" class="cls-5" d="M5.51,7.51V28.81s3.51,1.89,6,1.35,4.8-1.93,5.42-3.54c.15.09,3,3.6,6.58,3.56V7.51Z"/><path id="_Path_4" data-name="&lt;Path&gt;" class="cls-6" d="M30.17,26.62s2.51,5.2,7,4.87a6.8,6.8,0,0,0,5.35-3.09V7.51h-19V30.18c.17,0,.33,0,.5,0A10,10,0,0,0,30.17,26.62Z"/></g></g><g id="_Group_5" data-name="&lt;Group&gt;"><path id="_Compound_Path_4" data-name="&lt;Compound Path&gt;" class="cls-7" d="M24,.5c10.22,0,18.5,3.13,18.5,7s-8.28,7-18.5,7S5.5,11.37,5.5,7.5,13.78.5,24,.5Z"/><g id="_Group_6" data-name="&lt;Group&gt;"><path id="_Path_5" data-name="&lt;Path&gt;" class="cls-8" d="M35.61,9c1.19-.74,1.89-1.59,1.89-2.5,0-2.76-6.27-5-14-5s-14,2.24-14,5c0,.91.69,1.76,1.89,2.5,2.42-1.49,6.93-2.5,12.11-2.5S33.19,7.51,35.61,9Z"/><path id="_Path_6" data-name="&lt;Path&gt;" class="cls-9" d="M35.61,9C33.19,7.51,28.68,6.5,23.5,6.5s-9.69,1-12.11,2.5c2.42,1.49,6.93,2.5,12.11,2.5S33.19,10.49,35.61,9Z"/></g></g></g><g id="_Group_7" data-name="&lt;Group&gt;"><g id="_Clip_Group_" data-name="&lt;Clip Group&gt;"><g class="cls-10"><path id="_Compound_Path_5" data-name="&lt;Compound Path&gt;" class="cls-11" d="M60.37-.32A23.39,23.39,0,0,1,46.78,4a23.5,23.5,0,0,1-23.5-23.5A23.5,23.5,0,0,1,46.78-43a23.39,23.39,0,0,1,13.72,4.42"/></g></g></g></svg>