<svg id="Layer_1" data-name="Layer 1" xmlns="http://www.w3.org/2000/svg" viewBox="0 0 48 48"><defs><style>.cls-1{fill:#2f75bb;}</style></defs><title>icons-azure</title><g id="_Group_" data-name="&lt;Group&gt;"><path id="_Path_" data-name="&lt;Path&gt;" class="cls-1" d="M38.53,21.49a10,10,0,0,0-19.48,2l-.54,0a8.48,8.48,0,0,0-7.2,4h12a5.5,5.5,0,1,1,0,7H10.38a8.5,8.5,0,0,0,8.12,6l.49,0v0H39v0a9.5,9.5,0,0,0-.47-19Z"/></g><path class="cls-1" d="M27.49,27.5a3.5,3.5,0,0,0-3.15,2H8a5,5,0,1,1,3.11-8.89,6,6,0,0,1,10-5.45,8,8,0,0,1,2.81-1.38A9,9,0,0,0,8.5,16.54l-.51,0a8,8,0,0,0,0,16H24.34a3.5,3.5,0,1,0,3.16-5Z"/></svg>