<svg id="Layer_1" data-name="Layer 1" xmlns="http://www.w3.org/2000/svg" viewBox="0 0 48 48"><defs><style>.cls-1,.cls-2{fill:none;}.cls-2,.cls-6{fill-rule:evenodd;}.cls-3{fill:#2abaec;}.cls-4{fill:#00a2d8;}.cls-5{fill:#fff;}.cls-6{fill:#edf0f4;}.cls-7{fill:#a3bf3a;}.cls-8{fill:#80a23e;}</style></defs><title>icons-azure</title><g id="_Group_" data-name="&lt;Group&gt;"><path id="_Compound_Path_" data-name="&lt;Compound Path&gt;" class="cls-1" d="M27.5,35.5a2,2,0,0,0,2-2c0-1.48.85-3.65,1.82-4v0c-1-.38-1.82-2.48-1.82-3.94,0,0-.36-2-2-2l-.06-3a7.46,7.46,0,0,1,3.9.7c.95.66,1.16,2.06,1.16,3.3v2c0,1.16,2.92,1,3,1v3.92s-2.9-.25-3,1.08v3c0,1.24.07,1.35-.78,2.16s-2.85.84-4.22.84Z"/><path id="_Compound_Path_2" data-name="&lt;Compound Path&gt;" class="cls-1" d="M21.5,35.5a2,2,0,0,1-2-2c0-1.48-.88-3.65-1.83-4v0c1-.38,1.83-2.48,1.83-3.94,0,0-.38-2.06,2-2.06V20.5a7.18,7.18,0,0,0-3.82.7,2.24,2.24,0,0,0-1.18,2.3v3c0,1.16-2.95,1-3,1v3.92s3,0,3,1.08v3c0,1.24,0,1.35.8,2.16s2.85.84,4.2.84Z"/><path id="_Compound_Path_3" data-name="&lt;Compound Path&gt;" class="cls-2" d="M24.5,6.5c7.73,0,14,2.24,14,5s-6.27,5-14,5-14-2.24-14-5S16.77,6.5,24.5,6.5Z"/><path id="_Compound_Path_4" data-name="&lt;Compound Path&gt;" class="cls-2" d="M24.5,1.5c7.73,0,14,2.24,14,5s-6.27,5-14,5-14-2.24-14-5S16.77,1.5,24.5,1.5Z"/><path id="_Compound_Path_5" data-name="&lt;Compound Path&gt;" class="cls-2" d="M25,.5c10.22,0,18.5,3.13,18.5,7s-8.28,7-18.5,7S6.5,11.37,6.5,7.5,14.78.5,25,.5Z"/><path id="_Compound_Path_6" data-name="&lt;Compound Path&gt;" class="cls-2" d="M6.5,7.5h37l-.16,32.87H6.5Z"/><path id="_Compound_Path_7" data-name="&lt;Compound Path&gt;" class="cls-2" d="M24.92,33.39c10.17,0,18.42,3.13,18.42,7s-8.25,7-18.42,7S6.5,44.23,6.5,40.37,14.75,33.39,24.92,33.39Z"/><path id="_Compound_Path_8" data-name="&lt;Compound Path&gt;" class="cls-2" d="M24.5.5h19v47h-19Z"/><path id="_Compound_Path_9" data-name="&lt;Compound Path&gt;" class="cls-2" d="M6.5,7.5h37V40.57H6.5Z"/><path id="_Compound_Path_10" data-name="&lt;Compound Path&gt;" class="cls-2" d="M25,33.65c10.22,0,18.5,3.1,18.5,6.93S35.22,47.5,25,47.5,6.5,44.4,6.5,40.57,14.78,33.65,25,33.65Z"/><path id="_Path_" data-name="&lt;Path&gt;" class="cls-3" d="M5.5,7.54V40.61c0,3.82,8.28,6.93,18.5,6.93s18.5-3.1,18.5-6.93V7.54Z"/><g id="_Group_2" data-name="&lt;Group&gt;"><path id="_Path_2" data-name="&lt;Path&gt;" class="cls-4" d="M5.5,7.54V40.61c0,3.76,8,6.82,18,6.92v-40Z"/></g><g id="_Group_3" data-name="&lt;Group&gt;"><path id="_Compound_Path_11" data-name="&lt;Compound Path&gt;" class="cls-5" d="M26.5,35.5a2,2,0,0,0,2-2c0-1.48.85-3.65,1.82-4v0c-1-.38-1.82-2.48-1.82-3.94,0,0-.36-2-2-2l-.06-3a7.46,7.46,0,0,1,3.9.7c.95.66,1.16,2.06,1.16,3.3v2c0,1.16,2.92,1,3,1v3.92s-2.9-.25-3,1.08v3c0,1.24.07,1.35-.78,2.16s-2.85.84-4.22.84Z"/><path id="_Compound_Path_12" data-name="&lt;Compound Path&gt;" class="cls-5" d="M20.5,35.5a2,2,0,0,1-2-2c0-1.48-.88-3.65-1.83-4v0c1-.38,1.83-2.48,1.83-3.94,0,0-.38-2.06,2-2.06V20.5a7.18,7.18,0,0,0-3.82.7,2.24,2.24,0,0,0-1.18,2.3v3c0,1.16-2.95,1-3,1v3.92s3,0,3,1.08v3c0,1.24,0,1.35.8,2.16s2.85.84,4.2.84Z"/></g><path id="_Compound_Path_13" data-name="&lt;Compound Path&gt;" class="cls-6" d="M24,.5c10.22,0,18.5,3.13,18.5,7s-8.28,7-18.5,7S5.5,11.37,5.5,7.5,13.78.5,24,.5"/><g id="_Group_4" data-name="&lt;Group&gt;"><path id="_Path_3" data-name="&lt;Path&gt;" class="cls-7" d="M36.11,9.1C37.31,8.36,38,7.51,38,6.6c0-2.76-6.27-5-14-5s-14,2.24-14,5c0,.91.69,1.76,1.89,2.5C14.31,7.6,18.82,6.6,24,6.6S33.69,7.6,36.11,9.1Z"/><path id="_Path_4" data-name="&lt;Path&gt;" class="cls-8" d="M36.11,9.1C33.69,7.6,29.18,6.6,24,6.6s-9.69,1-12.11,2.5c2.42,1.49,6.93,2.5,12.11,2.5S33.69,10.59,36.11,9.1Z"/></g><path id="_Compound_Path_14" data-name="&lt;Compound Path&gt;" class="cls-2" d="M5.5,7.54h37l-.16,32.87H5.5Z"/><path id="_Compound_Path_15" data-name="&lt;Compound Path&gt;" class="cls-2" d="M23.92,47.39c-10.17,0-18.42-3.12-18.42-7s8.25-7,18.42-7,18.42,3.12,18.42,7-8.25,7-18.42,7"/></g></svg>