<svg id="Layer_1" data-name="Layer 1" xmlns="http://www.w3.org/2000/svg" viewBox="0 0 48 48"><defs><style>.cls-1{fill:#a3bf3a;}.cls-1,.cls-2{fill-rule:evenodd;}.cls-2{fill:#2f75bb;}</style></defs><title>icons-azure</title><path id="_Compound_Path_" data-name="&lt;Compound Path&gt;" class="cls-1" d="M11.13,14.44h8v6h-8Z"/><path id="_Compound_Path_2" data-name="&lt;Compound Path&gt;" class="cls-1" d="M11.13,22.44h8v6h-8Z"/><path id="_Compound_Path_3" data-name="&lt;Compound Path&gt;" class="cls-1" d="M11.13,30.44h8v6h-8Z"/><path id="_Compound_Path_4" data-name="&lt;Compound Path&gt;" class="cls-1" d="M21.13,18.44h8v6h-8Z"/><path id="_Compound_Path_5" data-name="&lt;Compound Path&gt;" class="cls-1" d="M21.13,26.44h8v6h-8Z"/><path id="_Compound_Path_6" data-name="&lt;Compound Path&gt;" class="cls-1" d="M31.13,22.44h8v6h-8Z"/><g id="_Group_" data-name="&lt;Group&gt;"><path class="cls-2" d="M4.63,5.44a.5.5,0,0,0-.5.5v8a.5.5,0,0,0,.5.5h3a.5.5,0,0,0,.5-.5v-4a.5.5,0,0,1,.5-.5h31a.5.5,0,0,1,.5.5v4a.5.5,0,0,0,.5.5h3a.5.5,0,0,0,.5-.5v-5h0v-3a.5.5,0,0,0-.5-.5Z"/><path class="cls-2" d="M40.13,40.94a.5.5,0,0,1-.5.5h-31a.5.5,0,0,1-.5-.5v-4a.5.5,0,0,0-.5-.5h-3a.5.5,0,0,0-.5.5v8a.5.5,0,0,0,.5.5h39a.5.5,0,0,0,.5-.5v-8a.5.5,0,0,0-.5-.5h-3a.5.5,0,0,0-.5.5Z"/></g></svg>