<svg id="Layer_1" data-name="Layer 1" xmlns="http://www.w3.org/2000/svg" viewBox="0 0 48 48"><defs><style>.cls-1{fill:#7b4d87;fill-rule:evenodd;}.cls-2{fill:#a3bf3a;}</style></defs><title>icons-azure</title><g id="_Group_" data-name="&lt;Group&gt;"><path id="_Compound_Path_" data-name="&lt;Compound Path&gt;" class="cls-1" d="M11,31H37v4H11Z"/><path id="_Compound_Path_2" data-name="&lt;Compound Path&gt;" class="cls-1" d="M28.79,15,41,28l-2.79,3L26,18Z"/><path id="_Compound_Path_3" data-name="&lt;Compound Path&gt;" class="cls-1" d="M19,15,7,27l3,3L22,18Z"/><g id="_Group_2" data-name="&lt;Group&gt;"><path id="_Compound_Path_4" data-name="&lt;Compound Path&gt;" class="cls-2" d="M24,8a6,6,0,1,0,6,6A6,6,0,0,0,24,8Zm0,8a2,2,0,1,1,2-2A2,2,0,0,1,24,16Z"/></g><g id="_Group_3" data-name="&lt;Group&gt;"><path id="_Compound_Path_5" data-name="&lt;Compound Path&gt;" class="cls-2" d="M6,26a6,6,0,1,0,6,6A6,6,0,0,0,6,26Zm0,8a2,2,0,1,1,2-2A2,2,0,0,1,6,34Z"/></g><g id="_Group_4" data-name="&lt;Group&gt;"><path id="_Compound_Path_6" data-name="&lt;Compound Path&gt;" class="cls-2" d="M42,26a6,6,0,1,0,6,6A6,6,0,0,0,42,26Zm0,8a2,2,0,1,1,2-2A2,2,0,0,1,42,34Z"/></g></g></svg>