<svg id="Layer_1" data-name="Layer 1" xmlns="http://www.w3.org/2000/svg" viewBox="0 0 48 48"><defs><style>.cls-1{fill:#f79e1c;}.cls-2{fill:#2abaec;fill-rule:evenodd;}.cls-3{fill:#f7b218;}</style></defs><title>icons-azure</title><polygon class="cls-1" points="25.74 18.78 34.76 4.78 30.47 4.78 26.75 4.78 22.45 4.78 20.73 4.78 13.77 25.74 18.54 25.74 22.84 25.74 19.97 34.22 15.72 46.78 34.76 18.78 30.47 18.78 25.74 18.78"/><polygon class="cls-2" points="15.78 36 4.48 24.69 15.31 13.86 13.19 11.73 0.22 24.71 2.34 26.83 2.36 26.8 13.67 38.11 15.78 36"/><polygon class="cls-2" points="48 24.72 34.64 11.77 32.45 13.88 43.62 24.71 31.97 36 34.15 38.11 45.79 26.82 45.81 26.84 48 24.72"/><polygon id="_Path_" data-name="&lt;Path&gt;" class="cls-3" points="25.74 18.78 21.45 18.78 30.47 4.78 26.75 4.78 22.45 4.78 20.73 4.78 13.77 25.74 18.54 25.74 22.84 25.74 19.97 34.22 30.47 18.78 25.74 18.78"/></svg>