<svg id="Layer_1" data-name="Layer 1" xmlns="http://www.w3.org/2000/svg" viewBox="0 0 48 48"><defs><style>.cls-1{fill:#00a2d8;fill-rule:evenodd;}</style></defs><title>icons-azure</title><path id="_Compound_Path_" data-name="&lt;Compound Path&gt;" class="cls-1" d="M24,13.34c-13.25,0-24,2.42-24,6.9s10.75,8.1,24,8.1,24-3.62,24-8.1S37.25,13.34,24,13.34Zm.49,11c-9.11,0-16.5-2.4-16.5-4.61s7.39-3.38,16.5-3.38S41,17.52,41,19.72,33.6,24.33,24.49,24.33Z"/><path id="_Path_" data-name="&lt;Path&gt;" class="cls-1" d="M24.5,31.34c-10.68,0-19.61-2.65-21.92-6.19A3,3,0,0,0,2,26.84c0,4.14,10.07,7.5,22.5,7.5S47,31,47,26.84a3,3,0,0,0-.58-1.69C44.11,28.69,35.18,31.34,24.5,31.34Z"/><path id="_Path_2" data-name="&lt;Path&gt;" class="cls-1" d="M24.5,37.34c-9.15,0-17-2.27-20.05-5.45A2.75,2.75,0,0,0,4,33.34c0,3.87,9.18,7,20.5,7s20.5-3.13,20.5-7a2.75,2.75,0,0,0-.45-1.45C41.45,35.07,33.65,37.34,24.5,37.34Z"/></svg>