<svg id="Layer_1" data-name="Layer 1" xmlns="http://www.w3.org/2000/svg" viewBox="0 0 48 48"><defs><style>.cls-1{fill:#45b6f4;}</style></defs><title>icons-azure</title><g id="iot"><polygon class="cls-1" points="0 37.95 7.49 41.29 7.49 12.38 0 9.61 0 37.95"/><polygon class="cls-1" points="48 37.43 40.13 40.86 40.13 12.52 48 9.61 48 37.43"/><polygon class="cls-1" points="13.84 43.49 23.38 48.16 23.38 19.44 13.84 15.72 13.84 43.49"/><polygon class="cls-1" points="33.74 43.2 23.38 48.16 23.38 19.44 33.74 15.34 33.74 43.2"/><polygon class="cls-1" points="13.84 15.72 23.81 11.57 33.74 15.34 23.38 19.44 13.84 15.72"/><polygon class="cls-1" points="30.68 9.04 37.94 5.55 48 9.61 40.13 12.52 30.68 9.04"/><path class="cls-1" d="M0,9.61,23.33.21,25.86.5s-3,4.77-3.58,4.82c-.81.1-5.58-1.43-7.54-1.24-1.67.14-5.2,1.86-5.3,4.25a2.37,2.37,0,0,0,1.72,2.62L7.54,12.43Z"/><path class="cls-1" d="M26.53,9.85S23.29,7.8,21.67,7c-2.19-1-5.06,1.48-5.2,3-.33,3.24,2.43,3.1,3.39,2.72C22.33,11.71,26.53,9.85,26.53,9.85Z"/><path class="cls-1" d="M27.63,9.28S31.68,2.41,34,1.12c.76-.43,2.53-1.29,3.48-.19a2.81,2.81,0,0,1-.29,4.15C35.88,6.41,27.63,9.28,27.63,9.28Z"/></g></svg>