<svg id="Layer_1" data-name="Layer 1" xmlns="http://www.w3.org/2000/svg" xmlns:xlink="http://www.w3.org/1999/xlink" viewBox="0 0 48 48"><defs><style>.cls-1{fill:none;clip-rule:evenodd;}.cls-2{fill:#323a45;}.cls-10,.cls-2,.cls-3,.cls-4,.cls-5{fill-rule:evenodd;}.cls-10,.cls-3,.cls-6,.cls-7,.cls-8{fill:#fff;}.cls-4{fill:#a3bf3a;}.cls-5{fill:#00a2d8;}.cls-7{opacity:0.6;}.cls-8{opacity:0.4;}.cls-9{clip-path:url(#clip-path);}.cls-10{opacity:0.1;}</style><clipPath id="clip-path"><path id="_Compound_Clipping_Path_" data-name="&lt;Compound Clipping Path&gt;" class="cls-1" d="M37.84,1.89A2.67,2.67,0,0,1,40.5,4.56V44.23a2.67,2.67,0,0,1-2.66,2.67H10.17a2.67,2.67,0,0,1-2.66-2.67V4.56a2.67,2.67,0,0,1,2.66-2.67"/></clipPath></defs><title>icons-azure</title><g id="_Group_" data-name="&lt;Group&gt;"><path id="_Compound_Path_" data-name="&lt;Compound Path&gt;" class="cls-2" d="M37.84,1.89A2.67,2.67,0,0,1,40.5,4.56V44.23a2.67,2.67,0,0,1-2.66,2.67H10.17a2.67,2.67,0,0,1-2.66-2.67V4.56a2.67,2.67,0,0,1,2.66-2.67"/><path id="_Compound_Path_2" data-name="&lt;Compound Path&gt;" class="cls-3" d="M24,39.91a2.5,2.5,0,1,1-2.5,2.5A2.5,2.5,0,0,1,24,39.91Z"/><path id="_Compound_Path_3" data-name="&lt;Compound Path&gt;" class="cls-4" d="M24,40.91a1.5,1.5,0,1,1-1.5,1.5A1.5,1.5,0,0,1,24,40.91Z"/><path id="_Compound_Path_4" data-name="&lt;Compound Path&gt;" class="cls-3" d="M19.5,3.91h9a1,1,0,0,1,0,2h-9a1,1,0,0,1,0-2Z"/><path id="_Compound_Path_5" data-name="&lt;Compound Path&gt;" class="cls-5" d="M10.5,7.91h27v30h-27Z"/><path id="_Compound_Path_6" data-name="&lt;Compound Path&gt;" class="cls-6" d="M23.45,11.9,13.5,16.7l10,5.2,10-5.23Z"/><path id="_Compound_Path_7" data-name="&lt;Compound Path&gt;" class="cls-7" d="M13.49,28.54l9,5.37V23.47l-9-5.58Z"/><path id="_Compound_Path_8" data-name="&lt;Compound Path&gt;" class="cls-8" d="M24.5,23.47V33.91l9-5.37V17.9Z"/><g id="_Clip_Group_" data-name="&lt;Clip Group&gt;"><g class="cls-9"><path id="_Compound_Path_9" data-name="&lt;Compound Path&gt;" class="cls-10" d="M36.42-3.39H4.24V60Z"/></g></g></g></svg>