<svg id="Layer_1" data-name="Layer 1" xmlns="http://www.w3.org/2000/svg" xmlns:xlink="http://www.w3.org/1999/xlink" viewBox="0 0 48 48"><defs><style>.cls-1{fill:none;clip-rule:evenodd;}.cls-2{fill:#404b59;}.cls-2,.cls-3,.cls-4,.cls-6{fill-rule:evenodd;}.cls-3{fill:#a3bf3a;}.cls-4{fill:#323a45;}.cls-5{clip-path:url(#clip-path);}.cls-6{fill:#fff;opacity:0.1;}</style><clipPath id="clip-path"><path id="_Compound_Clipping_Path_" data-name="&lt;Compound Clipping Path&gt;" class="cls-1" d="M34,22.89a2.22,2.22,0,0,0-2.5-1.9L16.65,22.41a7,7,0,0,1-.45-2.35L15,7a2.06,2.06,0,0,1,1.94-2.19L26.48,4a2.1,2.1,0,0,1,2.31,1.84l1.09,11.84a1,1,0,0,0-.07.33,1,1,0,1,0,2,0,1,1,0,0,0-.1-.42L30.26,1.42A1.73,1.73,0,0,0,28.3,0L14.68,1.14A1.71,1.71,0,0,0,13,2.89l1.58,17.58a5,5,0,0,0,.51,2.09A2.23,2.23,0,0,0,13,24.87l2,21.21a2.22,2.22,0,0,0,2.5,1.9l16.39-1.57A2.24,2.24,0,0,0,36,44.11ZM26.51,35.73,24.82,36l-.6-5a2.53,2.53,0,1,1,1.59-.37Z"/></clipPath></defs><title>icons-azure</title><g id="_Group_" data-name="&lt;Group&gt;"><path id="_Path_" data-name="&lt;Path&gt;" class="cls-2" d="M16.92,4.77,26.48,4a2.1,2.1,0,0,1,2.31,1.84L29.91,18h1.84L30.26,1.42A1.73,1.73,0,0,0,28.3,0L14.68,1.14A1.71,1.71,0,0,0,13,2.89l1.58,17.58c.08.88.24,2.59,1.25,2.5l1.22-.1c-.7-.41-.77-1.89-.86-2.82L15,7A2.06,2.06,0,0,1,16.92,4.77Z"/><g id="_Group_2" data-name="&lt;Group&gt;"><path id="_Compound_Path_" data-name="&lt;Compound Path&gt;" class="cls-3" d="M20,2.33l2.39-.17c.17,0,.32.16.34.39s-.09.42-.26.43l-2.39.17c-.16,0-.32-.16-.34-.39S19.87,2.34,20,2.33Z"/></g><path id="_Compound_Path_2" data-name="&lt;Compound Path&gt;" class="cls-2" d="M30.81,17a1,1,0,1,1-1,1A1,1,0,0,1,30.81,17Z"/><path id="_Compound_Path_3" data-name="&lt;Compound Path&gt;" class="cls-4" d="M34,22.89a2.22,2.22,0,0,0-2.5-1.9L15.15,22.55A2.24,2.24,0,0,0,13,24.87l2,21.21a2.22,2.22,0,0,0,2.5,1.9l16.39-1.57A2.24,2.24,0,0,0,36,44.11ZM26.51,35.73,24.82,36l-.6-5a2.53,2.53,0,1,1,1.59-.37Z"/><g id="_Clip_Group_" data-name="&lt;Clip Group&gt;"><g class="cls-5"><path id="_Compound_Path_4" data-name="&lt;Compound Path&gt;" class="cls-6" d="M1-6H49L1,48Z"/></g></g></g></svg>