<?xml version="1.0" encoding="utf-8"?>
<!-- Generator: Adobe Illustrator 20.1.0, SVG Export Plug-In . SVG Version: 6.00 Build 0)  -->
<svg version="1.1" id="Layer_1" xmlns="http://www.w3.org/2000/svg" xmlns:xlink="http://www.w3.org/1999/xlink" x="0px" y="0px"
	 viewBox="0 0 48 48" style="enable-background:new 0 0 48 48;" xml:space="preserve">
<style type="text/css">
	.st0{fill:#2F75BB;}
	.st1{opacity:0.15;fill:#FFFFFF;enable-background:new    ;}
</style>
<path class="st0" d="M14,22h30V6c0-1.7-1.3-3-3-3H6C4.3,3,3,4.3,3,6v8h30v-4l8,8H3v16c0,1.7,1.3,3,3,3h13l9,9v-9h13c1.7,0,3-1.3,3-3
	v-8H14v4l-8-8H14z"/>
<title>icons-azure</title>
<g>
	<path class="st1" d="M21.5,22l2.9-4H3v16c0,1.7,1.3,3,3,3h4.8l7.9-11H14v4l-8-8h8H21.5z"/>
	<path class="st1" d="M3,6v8h24.2l7.9-11H6C4.3,3,3,4.3,3,6z"/>
</g>
</svg>
