<?xml version="1.0" encoding="utf-8"?>
<!-- Generator: Adobe Illustrator 20.1.0, SVG Export Plug-In . SVG Version: 6.00 Build 0)  -->
<svg version="1.1" id="Layer_1" xmlns="http://www.w3.org/2000/svg" xmlns:xlink="http://www.w3.org/1999/xlink" x="0px" y="0px"
	 viewBox="0 0 48 48" style="enable-background:new 0 0 48 48;" xml:space="preserve">
<style type="text/css">
	.st0{fill:#00A2D8;}
	.st1{fill:#FFFFFF;}
	.st2{fill:#5E6D80;}
	.st3{fill:#323A45;}
	.st4{fill:#7C8737;}
	.st5{fill:#A3BF3A;}
	.st6{opacity:0.3;fill:#FFFFFF;enable-background:new    ;}
</style>
<title>icons-azure</title>
<g id="_Group_">
	<path id="_Compound_Path_" class="st0" d="M25.5,7c8.3,0,15,6.7,15,15s-6.7,15-15,15s-15-6.7-15-15S17.2,7,25.5,7z"/>
</g>
<path id="_Compound_Path_2" class="st1" d="M25.5,10c6.6,0,12,5.4,12,12s-5.4,12-12,12s-12-5.4-12-12S18.9,10,25.5,10z"/>
<g id="_Group_2">
	<path id="_Compound_Path_3" class="st2" d="M25,12c0.9,0,1.5,0.8,1.5,1.6v7.7c0.1,0.8-0.5,1.6-1.3,1.7c-0.8,0.1-1.6-0.5-1.7-1.3
		c0-0.1,0-0.2,0-0.3v-7.7C23.5,12.8,24.1,12,25,12z"/>
	<path id="_Compound_Path_4" class="st2" d="M34.1,27.2c-0.5,0.7-1.4,1-2.2,0.5L25.2,24c-0.8-0.3-1.1-1.2-0.8-2
		c0.3-0.8,1.2-1.1,2-0.8c0.1,0,0.2,0.1,0.3,0.2l6.8,3.7C34.2,25.4,34.5,26.4,34.1,27.2C34.1,27.2,34.1,27.2,34.1,27.2z"/>
	<path id="_Compound_Path_5" class="st3" d="M25,20c1.4,0,2.5,1.1,2.5,2.5S26.4,25,25,25s-2.5-1.1-2.5-2.5S23.6,20,25,20z"/>
</g>
<path id="_Compound_Path_6" class="st4" d="M24.5,48v-6h6L24.5,48z"/>
<g id="_Group_3">
	<g id="_Group_4">
		<path id="_Path_" class="st4" d="M26,40C15.9,40.1,7.6,32.1,7.5,22c0,0,0,0,0,0c0-6.7,3.8-12.9,9.8-15.9C9.1,8.8,3.6,16.4,3.5,25
			C3.6,36.2,12.8,45.1,24,45c0,0,0,0,0,0c1.2,0,2.3-0.1,3.5-0.3v-4.8C27,40,26.5,40,26,40z"/>
	</g>
	<g id="_Group_5">
		<path id="_Path_2" class="st5" d="M8.5,23c0.1-9.7,6.2-17,17-17c3.2-0.1,6.3,0.4,9.3,1.4C31.8,5.2,28.2,4,24.5,4
			c-9.9,0-18,8.5-18,19s8.1,19,18,19c0.3,0,0.7,0,1,0v-3C16.9,39,8.4,32.6,8.5,23z"/>
	</g>
	<path id="_Compound_Path_7" class="st5" d="M23.5,36v6h7L23.5,36z"/>
</g>
<path class="st6" d="M25.5,7c-8.3,0-15,6.7-15,15c0,4.1,1.7,7.9,4.4,10.6l21.2-21.2C33.4,8.7,29.6,7,25.5,7z"/>
</svg>
