<?xml version="1.0" encoding="utf-8"?>
<!-- Generator: Adobe Illustrator 20.1.0, SVG Export Plug-In . SVG Version: 6.00 Build 0)  -->
<svg version="1.1" id="Layer_1" xmlns="http://www.w3.org/2000/svg" xmlns:xlink="http://www.w3.org/1999/xlink" x="0px" y="0px"
	 viewBox="0 0 48 48" style="enable-background:new 0 0 48 48;" xml:space="preserve">
<style type="text/css">
	.st0{fill:#DB5B26;}
	.st1{fill:#F58B1F;}
	.st2{opacity:0.35;fill:#FFFFFF;enable-background:new    ;}
</style>
<title>icons-azure</title>
<g>
	<path id="_Compound_Path_" class="st0" d="M14.9,38h18.8v4H14.9V38z"/>
	<path id="_Compound_Path_2" class="st0" d="M27.8,5.6L41,19l-2.8,2.8L25,8.4L27.8,5.6z"/>
	<path id="_Compound_Path_3" class="st0" d="M42,22.9l-4.8,18l-3.8-1l4.8-18L42,22.9z"/>
	<path id="_Compound_Path_4" class="st0" d="M19.1,7L6,20.3l2.8,2.8L21.8,9.8L19.1,7z"/>
	<path id="_Compound_Path_5" class="st0" d="M7,23.2L11.7,41l3.7-1l-4.7-17.8L7,23.2z"/>
	<g id="_Group_2">
		<path id="_Compound_Path_6" class="st1" d="M35,33c3.9,0,7,3.1,7,7s-3.1,7-7,7s-7-3.1-7-7S31.1,33,35,33z"/>
		<path id="_Compound_Path_7" class="st1" d="M24,15c-3.9,0-7-3.1-7-7s3.1-7,7-7s7,3.1,7,7S27.9,15,24,15z M8,27c-3.9,0-7-3.1-7-7
			s3.1-7,7-7s7,3.1,7,7S11.9,27,8,27z M13,33c3.9,0,7,3.1,7,7s-3.1,7-7,7s-7-3.1-7-7S9.1,33,13,33z"/>
		<path id="_Compound_Path_8" class="st1" d="M40,13c3.9,0,7,3.1,7,7s-3.1,7-7,7s-7-3.1-7-7c0,0,0,0,0,0C33,16.1,36.1,13,40,13z"/>
	</g>
	<g id="_Group_2_1_">
		<path id="_Compound_Path_6_1_" class="st1" d="M35,33c3.9,0,7,3.1,7,7s-3.1,7-7,7s-7-3.1-7-7S31.1,33,35,33z"/>
		<path id="_Compound_Path_7_1_" class="st1" d="M24,15c-3.9,0-7-3.1-7-7s3.1-7,7-7s7,3.1,7,7S27.9,15,24,15z M8,27
			c-3.9,0-7-3.1-7-7s3.1-7,7-7s7,3.1,7,7S11.9,27,8,27z M13,33c3.9,0,7,3.1,7,7s-3.1,7-7,7s-7-3.1-7-7S9.1,33,13,33z"/>
		<path id="_Compound_Path_8_1_" class="st1" d="M40,13c3.9,0,7,3.1,7,7s-3.1,7-7,7s-7-3.1-7-7c0,0,0,0,0,0C33,16.1,36.1,13,40,13z"
			/>
	</g>
</g>
<path class="st2" d="M16.7,34.1c-0.9-0.6-2-1-3.2-1.1l-1.9-7.1c2-1.2,3.3-3.4,3.3-5.9c0-1-0.2-1.9-0.5-2.7l4.4-4.5
	c1,1,2.2,1.8,3.6,2.1l4-13.4C25.7,1.2,24.9,1,24,1c-3.9,0-7,3.1-7,7c0,0.3,0,0.7,0.1,1L12,14.2C10.8,13.5,9.5,13,8,13
	c-3.9,0-7,3.1-7,7s3.1,7,7,7c0,0,0,0,0,0l1.8,6.8C7.5,34.9,6,37.3,6,40c0,3.8,3.1,6.9,6.9,7L16.7,34.1z"/>
</svg>
