<svg id="Layer_1" data-name="Layer 1" xmlns="http://www.w3.org/2000/svg" viewBox="0 0 48 48"><defs><style>.cls-1{fill:#a3bf3a;}.cls-1,.cls-2{fill-rule:evenodd;}.cls-2,.cls-3{fill:#00a2d8;}</style></defs><title>icons-azure</title><path id="_Compound_Path_" data-name="&lt;Compound Path&gt;" class="cls-1" d="M14,15H25v3H14Z"/><path id="_Compound_Path_2" data-name="&lt;Compound Path&gt;" class="cls-1" d="M14,19H25v3H14Z"/><path id="_Compound_Path_3" data-name="&lt;Compound Path&gt;" class="cls-1" d="M14,23H25v3H14Z"/><path class="cls-2" d="M24.5,34.5v-1H37A3.5,3.5,0,0,0,40.5,30V27A3.5,3.5,0,0,0,37,23.5H31.5V22.24c.11-.22.21-.45.3-.68A9.5,9.5,0,0,0,24.5,8.62v-1a10.48,10.48,0,0,1,8.66,13l-.49,1.88H39A3.5,3.5,0,0,1,42.5,26v5A3.5,3.5,0,0,1,39,34.5Z"/><path class="cls-3" d="M23,6v4a8,8,0,0,1,7,11.87V25h7a2,2,0,0,1,2,2v3a2,2,0,0,1-2,2H23v4H39a5,5,0,0,0,5-5V26a5,5,0,0,0-5-5H34.61A12,12,0,0,0,23,6Z"/><path class="cls-3" d="M21,39V27H17v5H12a2.18,2.18,0,0,1-2-2V7a1.82,1.82,0,0,1,1.56-2h3.89A1.82,1.82,0,0,1,17,7v6h4V2.89A2,2,0,0,0,19,1H8A2,2,0,0,0,6,2.89V34a2,2,0,0,0,2,2h9v3H13l6,8,6-8Z"/></svg>