<svg id="Layer_1" data-name="Layer 1" xmlns="http://www.w3.org/2000/svg" viewBox="0 0 48 48"><defs><style>.cls-1{fill:#3898c6;}.cls-2{fill:#80ba42;}.cls-3{fill:#b3d234;}.cls-4{fill:#2abaec;}.cls-5{fill:#00a2d8;}.cls-6{font-size:9.07px;fill:#fff;font-family:SegoeUI-Bold, Segoe UI;font-weight:700;}.cls-7{fill:#f9f9f9;}.cls-10,.cls-7{fill-rule:evenodd;}.cls-8{fill:#a3bf3a;}.cls-9{fill:#80a23e;}.cls-10{fill:none;}</style></defs><title>SQL DW icon</title><polygon class="cls-1" points="36 11.25 18.34 1.67 0 11.25 0 14 3 14 3 34 6 34 6 14 30 14 30 34 33 34 33 14 36 14 36 11.25"/><rect class="cls-2" x="7.16" y="22.16" width="4.69" height="4.69"/><path class="cls-3" d="M12,27H7V22h5Zm-4.41-.59h3.82V22.59H7.59Z"/><rect class="cls-3" x="6.8" y="24.19" width="5.41" height="0.62" transform="translate(-14.54 13.89) rotate(-45)"/><rect class="cls-2" x="14.16" y="22.16" width="4.69" height="4.69"/><path class="cls-3" d="M19,27H14V22h5Zm-4.41-.59h3.82V22.59H14.59Z"/><rect class="cls-3" x="13.8" y="24.19" width="5.41" height="0.62" transform="translate(-12.49 18.84) rotate(-45)"/><rect class="cls-2" x="10.16" y="16.16" width="4.69" height="4.69"/><path class="cls-3" d="M15,21H10V16h5Zm-4.41-.59h3.82V16.59H10.59Z"/><rect class="cls-3" x="9.8" y="18.19" width="5.41" height="0.62" transform="translate(-9.42 14.26) rotate(-45)"/><rect class="cls-2" x="7.16" y="28.16" width="4.69" height="4.69"/><path class="cls-3" d="M12,33H7V28h5Zm-4.41-.59h3.82V28.59H7.59Z"/><rect class="cls-3" x="6.8" y="30.19" width="5.41" height="0.62" transform="translate(-18.78 15.65) rotate(-45)"/><rect class="cls-2" x="14.16" y="28.16" width="4.69" height="4.69"/><path class="cls-3" d="M19,33H14V28h5Zm-4.41-.59h3.82V28.59H14.59Z"/><rect class="cls-3" x="13.8" y="30.19" width="5.41" height="0.62" transform="translate(-16.73 20.6) rotate(-45)"/><rect class="cls-2" x="21.16" y="28.16" width="4.69" height="4.69"/><path class="cls-3" d="M26,33H21V28h5Zm-4.41-.59h3.82V28.59H21.59Z"/><rect class="cls-3" x="20.8" y="30.19" width="5.41" height="0.62" transform="translate(-14.68 25.55) rotate(-45)"/><g id="_Group_" data-name="&lt;Group&gt;"><path id="_Path_" data-name="&lt;Path&gt;" class="cls-4" d="M27,25.32V44.07C27,46.24,31.72,48,37.51,48S48,46.24,48,44.07V25.32Z"/><g id="_Group_2" data-name="&lt;Group&gt;"><path id="_Path_2" data-name="&lt;Path&gt;" class="cls-5" d="M27,25.32V44.07c0,2.13,4.54,3.86,10.21,3.92V25.32Z"/></g><text class="cls-6" transform="translate(29.21 40)">SQL</text><path id="_Compound_Path_" data-name="&lt;Compound Path&gt;" class="cls-7" d="M37.51,21.35c5.79,0,10.49,1.78,10.49,4s-4.7,4-10.49,4S27,27.51,27,25.32s4.7-4,10.49-4"/><g id="_Group_3" data-name="&lt;Group&gt;"><path id="_Path_3" data-name="&lt;Path&gt;" class="cls-8" d="M44.38,26.17c.68-.42,1.07-.9,1.07-1.42,0-1.57-3.55-2.83-7.94-2.83s-7.94,1.27-7.94,2.83c0,.52.39,1,1.07,1.42a14.23,14.23,0,0,1,6.87-1.42A14.23,14.23,0,0,1,44.38,26.17Z"/><path id="_Path_4" data-name="&lt;Path&gt;" class="cls-9" d="M44.38,26.17a14.23,14.23,0,0,0-6.87-1.42,14.23,14.23,0,0,0-6.87,1.42,14.23,14.23,0,0,0,6.87,1.42A14.23,14.23,0,0,0,44.38,26.17Z"/></g><path id="_Compound_Path_2" data-name="&lt;Compound Path&gt;" class="cls-10" d="M27,25.32H48L47.91,44H27Z"/><path id="_Compound_Path_3" data-name="&lt;Compound Path&gt;" class="cls-10" d="M37.47,47.92C31.7,47.92,27,46.14,27,44s4.68-4,10.44-4,10.44,1.77,10.44,4-4.68,4-10.44,4"/></g></svg>