<svg id="Layer_1" data-name="Layer 1" xmlns="http://www.w3.org/2000/svg" xmlns:xlink="http://www.w3.org/1999/xlink" viewBox="0 0 48 48"><defs><style>.cls-1,.cls-3,.cls-5,.cls-7{fill:none;}.cls-1{clip-rule:evenodd;}.cls-2{fill:#a5d9e2;}.cls-3,.cls-4,.cls-9{fill-rule:evenodd;}.cls-4,.cls-6{fill:#85c9d5;}.cls-7{stroke:#85c9d5;stroke-linecap:round;stroke-linejoin:round;stroke-width:0;}.cls-8{clip-path:url(#clip-path);}.cls-9{fill:#fff;opacity:0.15;}</style><clipPath id="clip-path"><path id="_Clipping_Path_" data-name="&lt;Clipping Path&gt;" class="cls-1" d="M24,55.76s-14,0-14,12.77c0,10.65,9,10.65,9,20.23H29c0-9.58,9-9.58,9-20.23C38,55.79,24,55.76,24,55.76Z"/></clipPath></defs><title>icons-azure</title><path class="cls-2" d="M41.94,22v0h-1a14.9,14.9,0,0,0,1-5.5A14.58,14.58,0,0,0,35.07,4a13.55,13.55,0,0,0-7.13-2A14.08,14.08,0,0,0,14.51,12.37a11.49,11.49,0,1,0-3.57,22.55v0h1v-2h13v4h13v-2h4v0a6.49,6.49,0,0,0,0-12.95Zm-17,8h-13v-2h13Zm0-5h-13v-2h13Z"/><path id="_Compound_Path_" data-name="&lt;Compound Path&gt;" class="cls-3" d="M25.94,20.94h14v14h-14Z"/><path id="_Compound_Path_2" data-name="&lt;Compound Path&gt;" class="cls-4" d="M24.94,44.94h13v2h-13Z"/><rect class="cls-5" x="11.94" y="22.95" width="13" height="2"/><rect class="cls-5" x="11.94" y="27.95" width="13" height="2"/><rect class="cls-6" x="24.94" y="39.94" width="13" height="2"/><path class="cls-6" d="M41.94,22v0h-1a14.9,14.9,0,0,0,1-5.5A14.58,14.58,0,0,0,35.07,4,14.11,14.11,0,0,0,22.51,14.37,11.48,11.48,0,0,0,11.94,34.13v-1.2h13v4h13v-2h4v0a6.49,6.49,0,0,0,0-12.95Zm-30,1h13v2h-13Zm0,7v-2h13v2Z"/><path class="cls-7" d="M13,34.94h0"/><g id="_Group_" data-name="&lt;Group&gt;"><g id="_Clip_Group_" data-name="&lt;Clip Group&gt;"><g class="cls-8"><path id="_Compound_Path_3" data-name="&lt;Compound Path&gt;" class="cls-9" d="M1,44.76H45l-44,44Z"/></g></g></g></svg>