<svg id="Layer_1" data-name="Layer 1" xmlns="http://www.w3.org/2000/svg" xmlns:xlink="http://www.w3.org/1999/xlink" viewBox="0 0 48 48"><defs><style>.cls-1{fill:none;}.cls-2,.cls-6{fill:#5e6d80;}.cls-3{fill:#323a45;}.cls-4,.cls-8{fill:#fff;}.cls-4,.cls-5,.cls-6,.cls-8{fill-rule:evenodd;}.cls-5{fill:#f7b218;}.cls-7{clip-path:url(#clip-path);}.cls-8{opacity:0.35;}</style><clipPath id="clip-path"><path id="_Clipping_Path_" data-name="&lt;Clipping Path&gt;" class="cls-1" d="M45,6.9H3a2,2,0,0,0-2,2v34a2,2,0,0,0,2,2H45a2,2,0,0,0,2-2V8.9A2,2,0,0,0,45,6.9Z"/></clipPath></defs><title>icons-azure</title><g id="_Group_" data-name="&lt;Group&gt;"><g id="_Group_2" data-name="&lt;Group&gt;"><path id="_Path_" data-name="&lt;Path&gt;" class="cls-2" d="M1,42.9a2,2,0,0,0,2,2H45a2,2,0,0,0,2-2v-27H1Z"/><path id="_Path_2" data-name="&lt;Path&gt;" class="cls-3" d="M45,6.9H3a2,2,0,0,0-2,2v7H47v-7A2,2,0,0,0,45,6.9Z"/></g><path id="_Compound_Path_" data-name="&lt;Compound Path&gt;" class="cls-4" d="M5,17.9H43v23H5Z"/><path id="_Compound_Path_2" data-name="&lt;Compound Path&gt;" class="cls-5" d="M5,36.9h8v4H5Z"/><path id="_Compound_Path_3" data-name="&lt;Compound Path&gt;" class="cls-5" d="M15,36.9h8v4H15Z"/><path id="_Compound_Path_4" data-name="&lt;Compound Path&gt;" class="cls-5" d="M25,36.9h8v4H25Z"/><path id="_Compound_Path_5" data-name="&lt;Compound Path&gt;" class="cls-5" d="M35,36.9h8v4H35Z"/><path id="_Compound_Path_6" data-name="&lt;Compound Path&gt;" class="cls-5" d="M15,30.9h8v4H15Z"/><path id="_Compound_Path_7" data-name="&lt;Compound Path&gt;" class="cls-5" d="M25,30.9h8v4H25Z"/><path id="_Compound_Path_8" data-name="&lt;Compound Path&gt;" class="cls-6" d="M4,34.91H45v2H4Z"/><path id="_Compound_Path_9" data-name="&lt;Compound Path&gt;" class="cls-6" d="M4,28.89H45v2H4Z"/><path id="_Compound_Path_10" data-name="&lt;Compound Path&gt;" class="cls-6" d="M4,22.9H45v2H4Z"/><path id="_Compound_Path_11" data-name="&lt;Compound Path&gt;" class="cls-6" d="M13,16.89h2v26H13Z"/><path id="_Compound_Path_12" data-name="&lt;Compound Path&gt;" class="cls-6" d="M23,16.89h2v26H23Z"/><path id="_Compound_Path_13" data-name="&lt;Compound Path&gt;" class="cls-6" d="M32.93,15.85h2L35,42.91H33Z"/><g id="_Clip_Group_" data-name="&lt;Clip Group&gt;"><g class="cls-7"><path id="_Compound_Path_14" data-name="&lt;Compound Path&gt;" class="cls-8" d="M48,1.9H0v48Z"/></g></g></g></svg>