<svg id="Layer_1" data-name="Layer 1" xmlns="http://www.w3.org/2000/svg" xmlns:xlink="http://www.w3.org/1999/xlink" viewBox="0 0 48 48"><defs><style>.cls-1{fill:none;}.cls-2{fill:#5e6d80;}.cls-3{clip-path:url(#clip-path);}.cls-4{fill:#f1f1f2;opacity:0.1;}.cls-4,.cls-5,.cls-6,.cls-7{fill-rule:evenodd;}.cls-5{fill:#2abaec;}.cls-6{fill:#00a2d8;}.cls-7{fill:#008ebe;}</style><clipPath id="clip-path"><path id="_Compound_Clipping_Path_" data-name="&lt;Compound Clipping Path&gt;" class="cls-1" d="M44.31,21.47c.09.33.13.67.2,1a15.7,15.7,0,0,0-2.28-5.67c.13.2.28.38.4.58l1.49-3.73h0L42.43,12l-1.68-1.68L37,11.8c.2.12.38.27.58.39A15.72,15.72,0,0,0,32,9.92c.33.07.67.11,1,.2L31.36,6.43H26.61L25,10.12c.33-.08.66-.13,1-.2A28.65,28.65,0,0,0,21,11.8l-3.73-1.49-3.36,3.36,1.49,3.73c.12-.2.27-.38.39-.58a15.68,15.68,0,0,0-2.28,5.66c.07-.34.11-.68.2-1L10,23.06v4.75l3.69,1.58c-.09-.33-.13-.68-.2-1a15.68,15.68,0,0,0,2.29,5.68c-.13-.2-.28-.38-.4-.59l-1.49,3.72,3.36,3.36h0L21,39.06c-.21-.12-.39-.27-.59-.4A15.68,15.68,0,0,0,26,40.95c-.34-.07-.68-.12-1-.2l1.58,3.69h4.75l1.58-3.69c-.33.09-.68.13-1,.2a15.71,15.71,0,0,0,5.68-2.29c-.2.13-.38.28-.59.4l3.73,1.49,3.36-3.36h0l-1.49-3.72c-.12.21-.27.39-.4.59a15.68,15.68,0,0,0,2.29-5.69c-.07.34-.11.69-.2,1L48,27.81V23.06ZM29,34.46a9,9,0,1,1,9-9A9,9,0,0,1,29,34.46Z"/></clipPath></defs><title>icons-azure</title><g id="_Group_" data-name="&lt;Group&gt;"><path id="_Path_" data-name="&lt;Path&gt;" class="cls-1" d="M15.74,16.82l-.13.2h0Z"/><path id="_Path_2" data-name="&lt;Path&gt;" class="cls-1" d="M28.38,16.47h0A9,9,0,0,0,21.93,31a4.5,4.5,0,0,1,2.26-.68A6.8,6.8,0,0,1,30,33.14l-2,1.19a6.06,6.06,0,0,0-4.07-2,3.18,3.18,0,0,0-.66.08,9,9,0,0,0,13.1-12.07l-1.17.73A11.84,11.84,0,0,0,28.38,16.47Z"/><path id="_Path_3" data-name="&lt;Path&gt;" class="cls-2" d="M44.31,21.47c.09.33.13.67.2,1a15.69,15.69,0,0,0-2.28-5.67c.13.2.28.38.4.58l1.49-3.73h0L42.43,12l-1.68-1.68L37,11.8c.2.12.38.27.58.39A15.72,15.72,0,0,0,32,9.92c.33.07.67.11,1,.2L31.36,6.43H26.61L25,10.12c.33-.08.66-.13,1-.2A28.65,28.65,0,0,0,21,11.8l-3.73-1.49-3.36,3.36L15.21,17l.4,0,.13-.2-.11.19a13.74,13.74,0,0,0,4.44-1.41,14.8,14.8,0,0,1,9.44-.95c4,.91,6.91,5.68,6.91,5.68h0a9,9,0,0,1-13.1,12.07c-2.57.57-4.14,4.2-8.66,5.55l2.58,2.58L21,39.06c-.21-.12-.39-.27-.59-.4A15.68,15.68,0,0,0,26,40.95c-.34-.07-.68-.12-1-.2l1.58,3.69h4.75l1.58-3.69c-.33.09-.68.13-1,.2a15.72,15.72,0,0,0,5.68-2.29c-.2.13-.38.28-.59.4l3.73,1.49,3.36-3.36-1.49-3.72c-.12.21-.27.39-.4.59a15.68,15.68,0,0,0,2.29-5.69c-.07.34-.11.69-.2,1L48,27.81V23.06Z"/></g><g id="_Clip_Group_" data-name="&lt;Clip Group&gt;"><g class="cls-3"><path id="_Compound_Path_" data-name="&lt;Compound Path&gt;" class="cls-4" d="M10,6.45H48l-38,38Z"/></g></g><path id="_Compound_Path_2" data-name="&lt;Compound Path&gt;" class="cls-5" d="M34,22s-3.87-4-8-4a14.8,14.8,0,0,0-9,3c-4.67,3.75-8.24,3.28-10,1L6,23.32S7.67,26,10.42,26c4.19,0,9.3-6,14.87-6A11.84,11.84,0,0,1,33,23Z"/><path id="_Compound_Path_3" data-name="&lt;Compound Path&gt;" class="cls-6" d="M32,26.52s-3.19-4-7.5-4c-5.64,0-9.86,6-14.51,6-5.14,0-6.49-3.33-6.49-3.33L2,26.52s3.38,4,7.5,4c6.42,0,9.17-6,15.49-6a7.23,7.23,0,0,1,6,3Z"/><path id="_Compound_Path_4" data-name="&lt;Compound Path&gt;" class="cls-7" d="M30,29.82a6.8,6.8,0,0,0-5.77-2.88c-4.09,0-5.74,6-13.24,6S1,29,1,29L0,30.44s3.22,4.5,11.11,4.5S20.39,29,24,29a6.06,6.06,0,0,1,4,2Z"/></svg>