<svg id="Layer_1" data-name="Layer 1" xmlns="http://www.w3.org/2000/svg" viewBox="0 0 48 48"><defs><style>.cls-1{fill:#7b4d87;}.cls-2{fill:#f6ecf4;}.cls-3{fill:#fff;fill-rule:evenodd;opacity:0.15;}</style></defs><title>icons-azure</title><g id="_Group_" data-name="&lt;Group&gt;"><path id="_Compound_Path_" data-name="&lt;Compound Path&gt;" class="cls-1" d="M34,45H15.08L3.5,32.4V14.55L14,3H34L44.5,14.55v18.9Z"/><path id="_Compound_Path_2" data-name="&lt;Compound Path&gt;" class="cls-2" d="M16.09,43H33L42.5,32.44V15.56L33,5H15L5.5,15.56V31.39Z"/><path id="_Compound_Path_3" data-name="&lt;Compound Path&gt;" class="cls-1" d="M31.5,40l6.21-7.79L32.5,27l-2,2V22h7l-2,2,4,4V17l-9-9h-13l-2.93,2.93L21.5,17l4-4V25h-12l4-4-6.93-6.07L8.5,17V30l9,10h10l-8-7-3,3V28h8l-3,3Z"/><path id="_Compound_Path_4" data-name="&lt;Compound Path&gt;" class="cls-3" d="M2.5,3h42L2.5,45Z"/></g></svg>