<svg id="Layer_1" data-name="Layer 1" xmlns="http://www.w3.org/2000/svg" viewBox="0 0 48 48"><defs><style>.cls-1{fill:#00a2d8;fill-rule:evenodd;}.cls-2{fill:#a3bf3a;}</style></defs><title>icons-azure</title><g id="_Group_" data-name="&lt;Group&gt;"><g id="_Group_2" data-name="&lt;Group&gt;"><path class="cls-1" d="M14.5,12.62a1,1,0,0,0-1.4,0L.71,25.22a1,1,0,0,0,0,1.43l1.42,1.45.71.71.71.71,9.51,9.67a1,1,0,0,0,1.4,0l1.39-1.41a1,1,0,0,0,0-1.43L6.33,26.67a1,1,0,0,1,0-1.43l9.59-9.75a1,1,0,0,0,0-1.43Z"/><path class="cls-1" d="M47.29,26.69a1,1,0,0,0,0-1.43L35,12.7a1,1,0,0,0-1.4,0l-1.4,1.43a1,1,0,0,0,0,1.43l9.49,9.72a1,1,0,0,1,0,1.43l-9.41,9.64a1,1,0,0,0,0,1.43l1.37,1.4a1,1,0,0,0,1.4,0l9.42-9.64.7-.71.7-.71Z"/></g><path id="_Compound_Path_" data-name="&lt;Compound Path&gt;" class="cls-2" d="M17,25.89a2.92,2.92,0,0,1-3,3,3,3,0,0,1,0-6A2.89,2.89,0,0,1,17,25.89Z"/><path id="_Compound_Path_2" data-name="&lt;Compound Path&gt;" class="cls-2" d="M27,25.89a2.92,2.92,0,0,1-3,3,3,3,0,0,1,0-6A2.89,2.89,0,0,1,27,25.89Z"/><path id="_Compound_Path_3" data-name="&lt;Compound Path&gt;" class="cls-2" d="M37,25.89a2.92,2.92,0,0,1-3,3,3,3,0,0,1,0-6A2.89,2.89,0,0,1,37,25.89Z"/></g></svg>