<svg id="Layer_1" data-name="Layer 1" xmlns="http://www.w3.org/2000/svg" xmlns:xlink="http://www.w3.org/1999/xlink" viewBox="0 0 48 48"><defs><style>.cls-1{fill:none;clip-rule:evenodd;}.cls-2{fill:#7b4d87;}.cls-2,.cls-3,.cls-4,.cls-6{fill-rule:evenodd;}.cls-3{fill:#d1b0d3;}.cls-4{fill:#5e6d80;}.cls-5{clip-path:url(#clip-path);}.cls-6{fill:#fff;opacity:0.15;}</style><clipPath id="clip-path"><path id="_Clipping_Path_" data-name="&lt;Clipping Path&gt;" class="cls-1" d="M24,1.76s-14,0-14,12.77c0,10.65,9,10.65,9,20.23H29c0-9.58,9-9.58,9-20.23C38,1.79,24,1.76,24,1.76Z"/></clipPath></defs><title>icons-azure</title><g id="_Group_" data-name="&lt;Group&gt;"><path id="_Path_" data-name="&lt;Path&gt;" class="cls-2" d="M24,1.76s-14,0-14,12.77c0,10.65,9,10.65,9,20.23H29c0-9.58,9-9.58,9-20.23C38,1.79,24,1.76,24,1.76Z"/><path id="_Compound_Path_" data-name="&lt;Compound Path&gt;" class="cls-3" d="M28.5,15.76a3.5,3.5,0,0,0-3.5,3.5,3.36,3.36,0,0,0,.05.5H25v1H23v-1h-.05a3.36,3.36,0,0,0,.05-.5,3.61,3.61,0,1,0-3,3.45v0h1v12h2v-12h2v12h2v-12h1v0a3.49,3.49,0,1,0,.5-7ZM18,19.26a1.5,1.5,0,1,1,1.5,1.5A1.5,1.5,0,0,1,18,19.26Zm10.5,1.5a1.5,1.5,0,1,1,1.5-1.5A1.5,1.5,0,0,1,28.5,20.76Z"/><path id="_Compound_Path_2" data-name="&lt;Compound Path&gt;" class="cls-4" d="M19,37.76H29v3H19Z"/><path id="_Compound_Path_3" data-name="&lt;Compound Path&gt;" class="cls-4" d="M19,42.76s2.18,4,5,4,5-4,5-4Z"/><g id="_Clip_Group_" data-name="&lt;Clip Group&gt;"><g class="cls-5"><path id="_Compound_Path_4" data-name="&lt;Compound Path&gt;" class="cls-6" d="M1-9.24H45l-44,44Z"/></g></g></g></svg>