<?xml version="1.0" encoding="utf-8"?>
<!-- Generator: Adobe Illustrator 20.1.0, SVG Export Plug-In . SVG Version: 6.00 Build 0)  -->
<svg version="1.1" id="Layer_1" xmlns="http://www.w3.org/2000/svg" xmlns:xlink="http://www.w3.org/1999/xlink" x="0px" y="0px"
	 viewBox="0 0 48 48" style="enable-background:new 0 0 48 48;" xml:space="preserve">
<style type="text/css">
	.st0{fill:#85C9D5;}
	.st1{fill:none;}
	.st2{fill:#88909B;}
	.st3{opacity:0.15;fill:#FFFFFF;enable-background:new    ;}
</style>
<title>icons-azure</title>
<g id="_Group_">
	<g id="_Group_2">
		<path id="_Compound_Path_" class="st0" d="M39.3,17H8.7c-2.3,0-4.1,1.6-4.7,4.8v20.7c0.7,2,2.6,3.4,4.7,3.5h30.6
			c2.1-0.1,4-1.5,4.7-3.5V21.8C43.4,18.6,41.6,17,39.3,17z M24,21l4,4h-2v4h-4v-4h-2L24,21z M15,36v-3h-4v-3.1h4V27l4.8,4.4L15,36z
			 M24,42l-4-4h2v-4h4v4h2L24,42z M37,33h-4v3l-5-5l5-4v3h4V33z"/>
		<g id="_Group_3">
			<path id="_Path_" class="st1" d="M28.8,31.8c0.8-0.8,1.4-1.8,1.7-2.9l-2.6,2L28.8,31.8z"/>
			<polygon id="_Path_2" class="st1" points="22,29 26,29 26,25 28,25 24,21 19.9,25 22,25 			"/>
			<path id="_Path_3" class="st1" d="M19.3,31.8l0.5-0.5l-1.9-1.7C18.2,30.4,18.7,31.2,19.3,31.8z"/>
			<path id="_Path_4" class="st1" d="M11,29.9V33h2.5c-0.6-1-1.2-2-1.5-3.1L11,29.9z"/>
			<path id="_Path_5" class="st1" d="M37,33v-3h-0.8c-0.4,1.1-0.9,2.1-1.5,3H37z"/>
			<path id="_Path_6" class="st1" d="M20,38l4,4l3.9-3.9c-1.5,0.5-3,0.7-4.5,0.6C22.2,38.6,21.1,38.4,20,38z"/>
			<path id="_Path_7" class="st1" d="M31,15.9c0-4.4-2.3-7.9-7-7.9c-4.2,0-7,3.8-7,7.9V17h14V15.9z"/>
			<path id="_Path_8" class="st1" d="M15,36l0.6-0.5c-0.2-0.2-0.4-0.4-0.6-0.6V36z"/>
			<path id="_Path_9" class="st1" d="M32.5,35.5L33,36v-1C32.8,35.2,32.6,35.3,32.5,35.5z"/>
			<path id="_Path_10" class="st2" d="M17,15.9c0-4.1,2.8-7.9,7-7.9c4.7,0,7,3.5,7,7.9V17h5.8v-1.9C36.8,8,31.5,2,24,2
				c-6.9,0-12.8,6.7-12.8,13.6V17H17L17,15.9z"/>
		</g>
		<g id="_Group_3_1_">
			<path id="_Path__1_" class="st1" d="M28.8,31.8c0.8-0.8,1.4-1.8,1.7-2.9l-2.6,2L28.8,31.8z"/>
			<polygon id="_Path_2_1_" class="st1" points="22,29 26,29 26,25 28,25 24,21 19.9,25 22,25 			"/>
			<path id="_Path_3_1_" class="st1" d="M19.3,31.8l0.5-0.5l-1.9-1.7C18.2,30.4,18.7,31.2,19.3,31.8z"/>
			<path id="_Path_4_1_" class="st1" d="M11,29.9V33h2.5c-0.6-1-1.2-2-1.5-3.1L11,29.9z"/>
			<path id="_Path_5_1_" class="st1" d="M37,33v-3h-0.8c-0.4,1.1-0.9,2.1-1.5,3H37z"/>
			<path id="_Path_6_1_" class="st1" d="M20,38l4,4l3.9-3.9c-1.5,0.5-3,0.7-4.5,0.6C22.2,38.6,21.1,38.4,20,38z"/>
			<path id="_Path_7_1_" class="st1" d="M31,15.9c0-4.4-2.3-7.9-7-7.9c-4.2,0-7,3.8-7,7.9V17h14V15.9z"/>
			<path id="_Path_8_1_" class="st1" d="M15,36l0.6-0.5c-0.2-0.2-0.4-0.4-0.6-0.6V36z"/>
			<path id="_Path_9_1_" class="st1" d="M32.5,35.5L33,36v-1C32.8,35.2,32.6,35.3,32.5,35.5z"/>
			<path class="st3" d="M24,2c-6.9,0-12.8,6.7-12.8,13.6V17H17l0-1.1c0-4.1,2.8-7.9,7-7.9c3.3,0,5.4,1.7,6.4,4.3l3.2-5.9
				C31.3,3.7,27.9,2,24,2z"/>
		</g>
		<path class="st3" d="M4,21.8v20.7c0.7,2,2.6,3.4,4.7,3.5h3.6L22,28.2V25h-2l4-4l1.3,1.3l2.9-5.3H8.7C6.4,17,4.6,18.6,4,21.8z
			 M11,29.9h4V27l4.8,4.4L15,36v-3h-4V29.9z"/>
	</g>
	<g id="_Clip_Group_">
		<g>
			<defs>
				<path id="SVGID_1_" d="M39.3,17h-2.5v-1.9C36.8,8,31.5,2,24,2c-6.9,0-12.8,6.7-12.8,13.6V17H8.7c-2.3,0-4.1,1.6-4.7,4.8v20.7
					c0.7,2,2.6,3.4,4.7,3.5h30.6c2.1-0.1,4-1.5,4.7-3.5V21.8C43.4,18.6,41.6,17,39.3,17z"/>
			</defs>
			<clipPath id="SVGID_2_">
				<use xlink:href="#SVGID_1_"  style="overflow:visible;"/>
			</clipPath>
		</g>
	</g>
</g>
</svg>
