<svg id="Layer_1" data-name="Layer 1" xmlns="http://www.w3.org/2000/svg" viewBox="0 0 48 48"><defs><style>.cls-1{fill:#85c9d5;}.cls-1,.cls-2{fill-rule:evenodd;}.cls-2,.cls-3{fill:#fff;}</style></defs><title>icons-azure</title><g id="_Group_" data-name="&lt;Group&gt;"><path id="_Compound_Path_" data-name="&lt;Compound Path&gt;" class="cls-1" d="M24.05,3A21,21,0,1,1,3,24,21,21,0,0,1,24.05,3Z"/><path id="_Compound_Path_2" data-name="&lt;Compound Path&gt;" class="cls-2" d="M10.83,6.45s-.39,8.38.85,12.25S22.25,31.83,30.5,34.45s10.26,2.62,10.26,2.62L39,38.82s-12.69-1.14-21.38-8.75-9.41-9.41-9.41-21Z"/><path id="_Compound_Path_3" data-name="&lt;Compound Path&gt;" class="cls-2" d="M6.55,37.07s1.84-9.65,6-15.75S21.93,8.65,39,8.2l2.57,3.5s-14.28-.62-21.38,6.12S10,40.57,10,40.57Z"/><path id="_Compound_Path_4" data-name="&lt;Compound Path&gt;" class="cls-2" d="M16.82,3a82.92,82.92,0,0,0,12,14c6.54,5.8,15.39,13.12,15.39,13.12l-.86,1.75S29,21.1,22.8,14.33s-7.7-10.5-7.7-10.5Z"/><path id="_Compound_Path_5" data-name="&lt;Compound Path&gt;" class="cls-3" d="M33.42,21.67a3.51,3.51,0,1,0,4.93.66A3.5,3.5,0,0,0,33.42,21.67Z"/><path id="_Compound_Path_6" data-name="&lt;Compound Path&gt;" class="cls-3" d="M24.63,30.78a4,4,0,1,0,5.59.74A4,4,0,0,0,24.63,30.78Z"/><path id="_Compound_Path_7" data-name="&lt;Compound Path&gt;" class="cls-3" d="M9.19,20.09a5.51,5.51,0,1,0,7.74,1A5.54,5.54,0,0,0,9.19,20.09Z"/></g></svg>